<svg width="32" height="32" viewBox="0 0 32 32" fill="none" xmlns="http://www.w3.org/2000/svg">
<rect width="32" height="32" rx="8" fill="white"/>
<path d="M7.76562 15.9758C7.76562 13.288 7.76562 10.5959 7.76562 7.90814C7.76562 6.50377 8.67307 5.35866 10.0299 5.03889C10.1336 5.01296 10.2417 5.00432 10.3497 5.00432C13.3183 5.00432 16.287 5.00432 19.2556 5C19.4371 5 19.571 5.0605 19.692 5.18581C21.468 7.04823 23.244 8.91497 25.0244 10.7774C25.1713 10.9286 25.2361 11.1101 25.2361 11.3219C25.2318 15.5609 25.2404 19.8 25.2318 24.039C25.2274 25.7546 23.9527 27.0034 22.2372 27.0034C18.413 27.0034 14.5931 27.0034 10.7688 27.0034C9.03173 27.0034 7.76995 25.7416 7.76995 24.0045C7.76562 21.3254 7.76562 18.6506 7.76562 15.9758ZM18.7371 6.04572C18.655 6.0414 18.5901 6.03276 18.5296 6.03276C15.9413 6.03276 13.3486 6.02844 10.7602 6.03276C9.61076 6.03276 8.83727 6.81489 8.83727 7.97296C8.83727 13.3096 8.83727 18.6462 8.83727 23.9829C8.83727 25.1582 9.61508 25.9317 10.7948 25.9317C14.5974 25.9317 18.4 25.9317 22.2026 25.9317C23.391 25.9317 24.1688 25.1539 24.1688 23.9656C24.1688 19.9642 24.1688 15.9585 24.1688 11.9571C24.1688 11.8836 24.1688 11.8058 24.1688 11.7194C23.1533 11.7194 22.1681 11.7194 21.1872 11.7194C19.7309 11.7194 18.7414 10.7342 18.7414 9.27795C18.7414 8.27976 18.7414 7.2859 18.7414 6.28771C18.7371 6.20993 18.7371 6.13214 18.7371 6.04572ZM23.4298 10.6564C22.207 9.3687 21.0273 8.13284 19.8346 6.87971C19.8174 6.93588 19.8044 6.95317 19.8044 6.97045C19.8087 7.8174 19.7914 8.66435 19.8217 9.50697C19.8433 10.1292 20.3575 10.6089 20.9884 10.6434C21.3384 10.6607 21.6927 10.6521 22.0428 10.6521C22.4835 10.6564 22.9243 10.6564 23.4298 10.6564Z" fill="#083F8D"/>
<path d="M23.4316 10.6552C22.9261 10.6552 22.4853 10.6552 22.0402 10.6552C21.6902 10.6552 21.3359 10.6638 20.9859 10.6465C20.355 10.6163 19.8408 10.1366 19.8191 9.51008C19.7889 8.66313 19.8062 7.81618 19.8019 6.97356C19.8019 6.95627 19.8148 6.93467 19.8321 6.88281C21.0291 8.13163 22.2088 9.36748 23.4316 10.6552Z" fill="#7DDFBD"/>
<path d="M15.9652 18.5606C15.9652 18.4741 15.9652 18.392 15.9652 18.3056C15.9652 16.5339 15.9609 14.7623 15.9695 12.9906C15.9695 12.835 16.0084 12.6622 16.0819 12.5239C16.1899 12.3208 16.4276 12.2517 16.6393 12.3165C16.8467 12.377 17.0066 12.5671 17.0239 12.7832C17.0282 12.861 17.0282 12.9387 17.0282 13.0208C17.0282 14.7925 17.0282 16.5642 17.0282 18.3359C17.0282 18.4137 17.0282 18.4914 17.0282 18.5692C17.0498 18.5865 17.0758 18.6081 17.0974 18.6254C17.1363 18.5606 17.1708 18.4914 17.2184 18.4396C17.8665 17.7396 18.5104 17.0395 19.1759 16.3525C19.2882 16.2358 19.474 16.1494 19.6339 16.1278C19.824 16.0975 19.9969 16.2142 20.0833 16.4C20.1697 16.5858 20.1654 16.7759 20.0444 16.9488C20.0142 16.992 19.9839 17.0266 19.9493 17.0655C18.9511 18.1371 17.9573 19.2087 16.9591 20.2761C16.648 20.6088 16.3498 20.6088 16.0387 20.2761C15.0405 19.2087 14.0423 18.1371 13.0484 17.0655C12.7978 16.7932 12.7978 16.4734 13.0398 16.2487C13.2559 16.05 13.5756 16.0802 13.8219 16.3438C14.4744 17.0395 15.1226 17.7396 15.7708 18.4396C15.8183 18.4914 15.8572 18.5476 15.9004 18.6038C15.922 18.5822 15.9436 18.5735 15.9652 18.5606Z" fill="#7DDFBD"/>
<path d="M16.5071 22.2628C17.9331 22.2628 19.3634 22.2585 20.7894 22.2671C20.9363 22.2671 21.1005 22.3233 21.2258 22.4054C21.39 22.5134 21.4549 22.7036 21.403 22.9023C21.3555 23.1011 21.2258 23.2437 21.0227 23.2999C20.9406 23.3215 20.8542 23.3258 20.7678 23.3258C17.9288 23.3258 15.0855 23.3258 12.2465 23.3258C12.1298 23.3258 12.0002 23.3085 11.8921 23.261C11.6588 23.1573 11.5508 22.911 11.6026 22.6733C11.6545 22.4313 11.8792 22.2628 12.1644 22.2628C13.6076 22.2628 15.0595 22.2628 16.5071 22.2628Z" fill="#083F8D"/>
</svg>
