<svg width="32" height="32" viewBox="0 0 32 32" fill="none" xmlns="http://www.w3.org/2000/svg">
<rect width="32" height="32" rx="8" fill="white"/>
<g clip-path="url(#clip0_1968_15034)">
<path d="M24.0824 6.2207H5.36719V24.9359H24.0824V6.2207Z" stroke="#083F8D" stroke-width="1.4" stroke-linecap="round" stroke-linejoin="round"/>
<path d="M14.7266 10.0859V11.0786" stroke="#083F8D" stroke-width="1.3" stroke-linecap="round" stroke-linejoin="round"/>
<path d="M14.7266 20.0488V21.0415" stroke="#083F8D" stroke-width="1.3" stroke-linecap="round" stroke-linejoin="round"/>
<path d="M9.24609 15.5625H10.2387" stroke="#083F8D" stroke-width="1.3" stroke-linecap="round" stroke-linejoin="round"/>
<path d="M19.209 15.5625H20.2016" stroke="#083F8D" stroke-width="1.3" stroke-linecap="round" stroke-linejoin="round"/>
<path d="M14.7197 20.0721C17.2033 20.0721 19.2167 18.0588 19.2167 15.5751C19.2167 13.0915 17.2033 11.0781 14.7197 11.0781C12.236 11.0781 10.2227 13.0915 10.2227 15.5751C10.2227 18.0588 12.236 20.0721 14.7197 20.0721Z" stroke="#083F8D" stroke-width="1.4" stroke-linecap="round" stroke-linejoin="round"/>
<path d="M10.9586 24.9355H8.67383V26.3306H10.9586V24.9355Z" stroke="#083F8D" stroke-width="1.2" stroke-linecap="round" stroke-linejoin="round"/>
<path d="M6.26701 11.9609H4.54883" stroke="#083F8D" stroke-width="0.89375" stroke-linecap="round" stroke-linejoin="round"/>
<path d="M6.26701 19.8066H4.54883" stroke="#083F8D" stroke-width="0.89375" stroke-linecap="round" stroke-linejoin="round"/>
<path d="M27.4684 16.7337L22.1987 13.8574H22.1681L16.8984 16.7337C16.8984 16.7337 16.8994 24.3302 22.1834 26.1498C27.4674 24.3302 27.4684 16.7337 27.4684 16.7337Z" fill="#7DDFBD" stroke="#083F8D" stroke-width="1.4" stroke-linecap="round" stroke-linejoin="round"/>
<path d="M20.7822 20.0197L21.8308 21.2452L24.2324 19.0055" fill="#7DDFBD"/>
<path d="M20.7822 20.0197L21.8308 21.2452L24.2324 19.0055" stroke="#083F8D" stroke-linecap="round" stroke-linejoin="round"/>
</g>
<defs>
<clipPath id="clip0_1968_15034">
<rect width="24" height="24" fill="white" transform="translate(4 4)"/>
</clipPath>
</defs>
</svg>
