<svg width="32" height="32" viewBox="0 0 32 32" fill="none" xmlns="http://www.w3.org/2000/svg">
<rect width="32" height="32" rx="8" fill="white"/>
<ellipse cx="11.9333" cy="12.5014" rx="3.42157" ry="3.29045" fill="#EBF8FF" stroke="#083F8D" stroke-width="0.75"/>
<ellipse cx="11.9345" cy="12.5015" rx="2.73725" ry="2.63236" fill="#7DDFBD"/>
<path d="M11.6997 12.9814H11.109C11.0563 12.9814 11.0057 12.9608 10.9684 12.9241C10.9311 12.8875 10.9102 12.8377 10.9102 12.7859C10.9102 12.734 10.9311 12.6843 10.9684 12.6477C11.0057 12.611 11.0563 12.5904 11.109 12.5904H11.6997C11.8365 12.5904 11.9676 12.537 12.0644 12.4419C12.1611 12.3469 12.2154 12.2179 12.2154 12.0835C12.2154 11.949 12.1611 11.8201 12.0644 11.725C11.9676 11.6299 11.8365 11.5765 11.6997 11.5765H11.2877C11.235 11.5765 11.1844 11.5559 11.1471 11.5193C11.1098 11.4826 11.0889 11.4329 11.0889 11.381C11.0889 11.3292 11.1098 11.2795 11.1471 11.2428C11.1844 11.2061 11.235 11.1855 11.2877 11.1855H11.6997C11.942 11.1855 12.1743 11.2801 12.3456 11.4485C12.5169 11.6169 12.6131 11.8453 12.6131 12.0835C12.6131 12.3216 12.5169 12.55 12.3456 12.7184C12.1743 12.8868 11.942 12.9814 11.6997 12.9814Z" fill="#083F8D"/>
<path d="M12.7989 11.5765H11.109C11.0563 11.5765 11.0057 11.5559 10.9684 11.5193C10.9311 11.4826 10.9102 11.4329 10.9102 11.381C10.9102 11.3292 10.9311 11.2795 10.9684 11.2428C11.0057 11.2061 11.0563 11.1855 11.109 11.1855H12.7989C12.8517 11.1855 12.9023 11.2061 12.9396 11.2428C12.9768 11.2795 12.9978 11.3292 12.9978 11.381C12.9978 11.4329 12.9768 11.4826 12.9396 11.5193C12.9023 11.5559 12.8517 11.5765 12.7989 11.5765ZM12.7989 12.2789H11.109C11.0563 12.2789 11.0057 12.2583 10.9684 12.2217C10.9311 12.185 10.9102 12.1353 10.9102 12.0835C10.9102 12.0316 10.9311 11.9819 10.9684 11.9452C11.0057 11.9086 11.0563 11.888 11.109 11.888H12.7989C12.8517 11.888 12.9023 11.9086 12.9396 11.9452C12.9768 11.9819 12.9978 12.0316 12.9978 12.0835C12.9978 12.1353 12.9768 12.185 12.9396 12.2217C12.9023 12.2583 12.8517 12.2789 12.7989 12.2789ZM12.3869 14.197C12.3353 14.197 12.2857 14.1772 12.2485 14.142L10.9706 12.9259C10.933 12.8897 10.9115 12.8405 10.9108 12.7888C10.9101 12.7371 10.9302 12.6873 10.9667 12.6502C11.0033 12.6131 11.0533 12.5917 11.1058 12.5907C11.1584 12.5897 11.2092 12.6092 11.2471 12.6449L12.5251 13.8605C12.5535 13.8876 12.5731 13.9224 12.5813 13.9605C12.5895 13.9985 12.586 14.0382 12.5712 14.0743C12.5563 14.1103 12.5309 14.1413 12.498 14.163C12.4652 14.1848 12.4265 14.1965 12.3869 14.1965V14.197Z" fill="#083F8D"/>
<path d="M8.58758 11.4903L9.96953 9.69945C10.115 9.51155 10.1751 9.28296 10.156 9.06637C10.131 8.86151 10.0389 8.65689 9.88005 8.5052C9.50735 8.14933 8.90455 8.15147 8.53439 8.50998L7.05881 9.65121C6.03865 10.4395 5.44615 11.6303 5.45059 12.8834L5.47447 19.6173C5.47515 19.8106 5.634 19.9623 5.83494 19.9615L8.25833 19.953C8.45926 19.9522 8.61704 19.7994 8.61635 19.6062L8.61083 18.0486C8.60967 17.7207 8.7425 17.404 8.98523 17.1689L9.3918 16.7752C9.68914 16.4872 9.85824 16.0942 9.85678 15.6844L9.85382 14.847C9.85303 14.6245 9.79744 14.4022 9.69322 14.2034L9.41737 13.6833C9.28861 13.4319 9.21457 13.157 9.21357 12.8759L9.21187 12.3957C9.21008 11.8922 8.78852 11.4896 8.26487 11.4915C7.74122 11.4933 7.32252 11.8989 7.3243 12.4024L7.32966 13.9132" fill="#EBF8FF"/>
<path d="M8.58758 11.4903L9.96953 9.69945C10.115 9.51155 10.1751 9.28296 10.156 9.06637C10.131 8.86151 10.0389 8.65689 9.88005 8.5052C9.50735 8.14933 8.90455 8.15147 8.53439 8.50998L7.05881 9.65121C6.03865 10.4395 5.44615 11.6303 5.45059 12.8834L5.47447 19.6173C5.47515 19.8106 5.634 19.9623 5.83494 19.9615L8.25833 19.953C8.45926 19.9522 8.61704 19.7994 8.61635 19.6062L8.61083 18.0486C8.60967 17.7207 8.7425 17.404 8.98523 17.1689L9.3918 16.7752C9.68914 16.4872 9.85824 16.0942 9.85678 15.6844L9.85382 14.847C9.85303 14.6245 9.79744 14.4022 9.69322 14.2034L9.41737 13.6833C9.28861 13.4319 9.21457 13.157 9.21357 12.8759L9.21187 12.3957C9.21008 11.8922 8.78852 11.4896 8.26487 11.4915C7.74122 11.4933 7.32252 11.8989 7.3243 12.4024L7.32966 13.9132" stroke="#083F8D" stroke-width="1.05" stroke-miterlimit="10" stroke-linecap="round" stroke-linejoin="round"/>
<ellipse cx="3.42157" cy="3.29045" rx="3.42157" ry="3.29045" transform="matrix(-1 6.50661e-05 -7.03548e-05 -1 23.2891 22.373)" fill="#EBF8FF" stroke="#083F8D" stroke-width="0.75"/>
<ellipse cx="2.73725" cy="2.63236" rx="2.73725" ry="2.63236" transform="matrix(-1 6.50661e-05 -7.03548e-05 -1 22.6055 21.7148)" fill="#7DDFBD"/>
<path d="M23.379 19.9822L21.9972 21.7732C21.8517 21.9611 21.7916 22.1897 21.8107 22.4063C21.8358 22.6111 21.9279 22.8158 22.0867 22.9674C22.4594 23.3233 23.0623 23.3211 23.4324 22.9626L24.9079 21.8212C25.928 21.0329 26.5204 19.8421 26.5159 18.589L26.4915 11.855C26.4908 11.6618 26.332 11.5101 26.131 11.5108L23.7076 11.5196C23.5067 11.5203 23.3489 11.6731 23.3496 11.8664L23.3553 13.4239C23.3565 13.7519 23.2236 14.0685 22.9809 14.3037L22.5744 14.6974C22.2771 14.9855 22.108 15.3784 22.1095 15.7883L22.1125 16.6256C22.1133 16.8481 22.1689 17.0705 22.2732 17.2692L22.549 17.7893C22.6778 18.0407 22.7519 18.3156 22.7529 18.5967L22.7546 19.0768C22.7565 19.5804 23.1781 19.983 23.7017 19.9811C24.2253 19.9792 24.644 19.5736 24.6422 19.07L24.6367 17.5593" fill="#EBF8FF"/>
<path d="M23.379 19.9822L21.9972 21.7732C21.8517 21.9611 21.7916 22.1897 21.8107 22.4063C21.8358 22.6111 21.9279 22.8158 22.0867 22.9674C22.4594 23.3233 23.0623 23.3211 23.4324 22.9626L24.9079 21.8212C25.928 21.0329 26.5204 19.8421 26.5159 18.589L26.4915 11.855C26.4908 11.6618 26.332 11.5101 26.131 11.5108L23.7076 11.5196C23.5067 11.5203 23.3489 11.6731 23.3496 11.8664L23.3553 13.4239C23.3565 13.7519 23.2236 14.0685 22.9809 14.3037L22.5744 14.6974C22.2771 14.9855 22.108 15.3784 22.1095 15.7883L22.1125 16.6256C22.1133 16.8481 22.1689 17.0705 22.2732 17.2692L22.549 17.7893C22.6778 18.0407 22.7519 18.3156 22.7529 18.5967L22.7546 19.0768C22.7565 19.5804 23.1781 19.983 23.7017 19.9811C24.2253 19.9792 24.644 19.5736 24.6422 19.07L24.6367 17.5593" stroke="#083F8D" stroke-width="1.05" stroke-miterlimit="10" stroke-linecap="round" stroke-linejoin="round"/>
<mask id="path-12-outside-1_1968_15024" maskUnits="userSpaceOnUse" x="18.248" y="16.75" width="3" height="5" fill="black">
<rect fill="white" x="18.248" y="16.75" width="3" height="5"/>
<path d="M19.6167 21.0763V17.7837H19.8754V21.0763H19.6167ZM19.7779 20.795C19.5854 20.795 19.4179 20.76 19.2754 20.69C19.1329 20.62 19.0229 20.5225 18.9454 20.3975C18.8679 20.2725 18.8292 20.1275 18.8292 19.9625H19.1592C19.1592 20.065 19.1829 20.16 19.2304 20.2475C19.2779 20.3325 19.3467 20.4012 19.4367 20.4537C19.5292 20.5037 19.6429 20.5287 19.7779 20.5287C19.8954 20.5287 19.9954 20.51 20.0779 20.4725C20.1629 20.4325 20.2267 20.3787 20.2692 20.3112C20.3142 20.2437 20.3367 20.1675 20.3367 20.0825C20.3367 19.98 20.3142 19.8975 20.2692 19.835C20.2267 19.77 20.1679 19.7175 20.0929 19.6775C20.0179 19.6375 19.9304 19.6025 19.8304 19.5725C19.7329 19.54 19.6304 19.505 19.5229 19.4675C19.3154 19.3975 19.1629 19.3112 19.0654 19.2087C18.9679 19.1037 18.9192 18.9675 18.9192 18.8C18.9192 18.6575 18.9517 18.5325 19.0167 18.425C19.0842 18.3175 19.1792 18.2337 19.3017 18.1737C19.4267 18.1112 19.5742 18.08 19.7442 18.08C19.9117 18.08 20.0567 18.1112 20.1792 18.1737C20.3042 18.2362 20.4017 18.3225 20.4717 18.4325C20.5417 18.54 20.5767 18.665 20.5767 18.8075H20.2467C20.2467 18.735 20.2279 18.6637 20.1904 18.5937C20.1529 18.5237 20.0954 18.4662 20.0179 18.4212C19.9429 18.3737 19.8479 18.35 19.7329 18.35C19.6379 18.3475 19.5529 18.3637 19.4779 18.3987C19.4054 18.4312 19.3479 18.4787 19.3054 18.5412C19.2654 18.6037 19.2454 18.68 19.2454 18.77C19.2454 18.855 19.2629 18.9237 19.2979 18.9762C19.3354 19.0287 19.3879 19.0737 19.4554 19.1112C19.5254 19.1462 19.6067 19.1787 19.6992 19.2087C19.7917 19.2387 19.8942 19.2725 20.0067 19.31C20.1342 19.3525 20.2467 19.405 20.3442 19.4675C20.4442 19.5275 20.5217 19.605 20.5767 19.7C20.6342 19.795 20.6629 19.9162 20.6629 20.0637C20.6629 20.1887 20.6292 20.3075 20.5617 20.42C20.4967 20.53 20.3992 20.62 20.2692 20.69C20.1392 20.76 19.9754 20.795 19.7779 20.795Z"/>
</mask>
<path d="M19.6167 21.0763V17.7837H19.8754V21.0763H19.6167ZM19.7779 20.795C19.5854 20.795 19.4179 20.76 19.2754 20.69C19.1329 20.62 19.0229 20.5225 18.9454 20.3975C18.8679 20.2725 18.8292 20.1275 18.8292 19.9625H19.1592C19.1592 20.065 19.1829 20.16 19.2304 20.2475C19.2779 20.3325 19.3467 20.4012 19.4367 20.4537C19.5292 20.5037 19.6429 20.5287 19.7779 20.5287C19.8954 20.5287 19.9954 20.51 20.0779 20.4725C20.1629 20.4325 20.2267 20.3787 20.2692 20.3112C20.3142 20.2437 20.3367 20.1675 20.3367 20.0825C20.3367 19.98 20.3142 19.8975 20.2692 19.835C20.2267 19.77 20.1679 19.7175 20.0929 19.6775C20.0179 19.6375 19.9304 19.6025 19.8304 19.5725C19.7329 19.54 19.6304 19.505 19.5229 19.4675C19.3154 19.3975 19.1629 19.3112 19.0654 19.2087C18.9679 19.1037 18.9192 18.9675 18.9192 18.8C18.9192 18.6575 18.9517 18.5325 19.0167 18.425C19.0842 18.3175 19.1792 18.2337 19.3017 18.1737C19.4267 18.1112 19.5742 18.08 19.7442 18.08C19.9117 18.08 20.0567 18.1112 20.1792 18.1737C20.3042 18.2362 20.4017 18.3225 20.4717 18.4325C20.5417 18.54 20.5767 18.665 20.5767 18.8075H20.2467C20.2467 18.735 20.2279 18.6637 20.1904 18.5937C20.1529 18.5237 20.0954 18.4662 20.0179 18.4212C19.9429 18.3737 19.8479 18.35 19.7329 18.35C19.6379 18.3475 19.5529 18.3637 19.4779 18.3987C19.4054 18.4312 19.3479 18.4787 19.3054 18.5412C19.2654 18.6037 19.2454 18.68 19.2454 18.77C19.2454 18.855 19.2629 18.9237 19.2979 18.9762C19.3354 19.0287 19.3879 19.0737 19.4554 19.1112C19.5254 19.1462 19.6067 19.1787 19.6992 19.2087C19.7917 19.2387 19.8942 19.2725 20.0067 19.31C20.1342 19.3525 20.2467 19.405 20.3442 19.4675C20.4442 19.5275 20.5217 19.605 20.5767 19.7C20.6342 19.795 20.6629 19.9162 20.6629 20.0637C20.6629 20.1887 20.6292 20.3075 20.5617 20.42C20.4967 20.53 20.3992 20.62 20.2692 20.69C20.1392 20.76 19.9754 20.795 19.7779 20.795Z" fill="#083F8D"/>
<path d="M19.6167 21.0763H19.5645V21.1284H19.6167V21.0763ZM19.6167 17.7837V17.7316H19.5645V17.7837H19.6167ZM19.8754 17.7837H19.9276V17.7316H19.8754V17.7837ZM19.8754 21.0763V21.1284H19.9276V21.0763H19.8754ZM19.2754 20.69L19.2524 20.7368L19.2754 20.69ZM18.9454 20.3975L18.901 20.425L18.9454 20.3975ZM18.8292 19.9625V19.9103H18.777V19.9625H18.8292ZM19.1592 19.9625H19.2113V19.9103H19.1592V19.9625ZM19.2304 20.2475L19.1845 20.2724L19.1848 20.273L19.2304 20.2475ZM19.4367 20.4537L19.4103 20.4989L19.4118 20.4997L19.4367 20.4537ZM20.0779 20.4725L20.0995 20.52L20.1001 20.5197L20.0779 20.4725ZM20.2692 20.3112L20.2257 20.2823L20.225 20.2834L20.2692 20.3112ZM20.2692 19.835L20.2254 19.8636L20.2268 19.8655L20.2692 19.835ZM19.8304 19.5725L19.8139 19.622L19.8154 19.6225L19.8304 19.5725ZM19.5229 19.4675L19.5401 19.4182L19.5396 19.418L19.5229 19.4675ZM19.0654 19.2088L19.0272 19.2443L19.0276 19.2447L19.0654 19.2088ZM19.0167 18.425L18.9724 18.3972L18.972 18.398L19.0167 18.425ZM19.3017 18.1737L19.3246 18.2206L19.325 18.2204L19.3017 18.1737ZM20.1792 18.1737L20.1554 18.2202L20.1558 18.2204L20.1792 18.1737ZM20.4717 18.4325L20.4276 18.4605L20.4279 18.461L20.4717 18.4325ZM20.5767 18.8075V18.8597H20.6288V18.8075H20.5767ZM20.2467 18.8075H20.1945V18.8597H20.2467V18.8075ZM20.1904 18.5937L20.2364 18.5691L20.1904 18.5937ZM20.0179 18.4212L19.99 18.4654L19.9917 18.4664L20.0179 18.4212ZM19.7329 18.35L19.7315 18.4022H19.7329V18.35ZM19.4779 18.3987L19.4993 18.4464L19.5 18.446L19.4779 18.3987ZM19.3054 18.5412L19.2622 18.5119L19.2614 18.5131L19.3054 18.5412ZM19.2979 18.9762L19.2545 19.0052L19.2554 19.0066L19.2979 18.9762ZM19.4554 19.1112L19.43 19.1569L19.4321 19.1579L19.4554 19.1112ZM20.0067 19.31L19.9901 19.3595L20.0067 19.31ZM20.3442 19.4675L20.316 19.5115L20.3173 19.5123L20.3442 19.4675ZM20.5767 19.7L20.5315 19.7262L20.532 19.727L20.5767 19.7ZM20.5617 20.42L20.5169 20.3931L20.5167 20.3934L20.5617 20.42ZM20.2692 20.69L20.2939 20.736L20.2692 20.69ZM19.6688 21.0763V17.7837H19.5645V21.0763H19.6688ZM19.6167 17.8359H19.8754V17.7316H19.6167V17.8359ZM19.8232 17.7837V21.0763H19.9276V17.7837H19.8232ZM19.8754 21.0241H19.6167V21.1284H19.8754V21.0241ZM19.7779 20.7428C19.5917 20.7428 19.4324 20.709 19.2984 20.6432L19.2524 20.7368C19.4034 20.811 19.5791 20.8472 19.7779 20.8472V20.7428ZM19.2984 20.6432C19.164 20.5771 19.0617 20.486 18.9898 20.37L18.901 20.425C18.9841 20.559 19.1018 20.6629 19.2524 20.7368L19.2984 20.6432ZM18.9898 20.37C18.918 20.2542 18.8813 20.119 18.8813 19.9625H18.777C18.777 20.136 18.8178 20.2908 18.901 20.425L18.9898 20.37ZM18.8292 20.0147H19.1592V19.9103H18.8292V20.0147ZM19.107 19.9625C19.107 20.0734 19.1328 20.177 19.1845 20.2724L19.2763 20.2226C19.233 20.143 19.2113 20.0566 19.2113 19.9625H19.107ZM19.1848 20.273C19.2372 20.3667 19.3129 20.442 19.4104 20.4988L19.4629 20.4087C19.3804 20.3605 19.3186 20.2983 19.276 20.222L19.1848 20.273ZM19.4118 20.4997C19.5138 20.5548 19.6366 20.5809 19.7779 20.5809V20.4766C19.6492 20.4766 19.5445 20.4527 19.4615 20.4078L19.4118 20.4997ZM19.7779 20.5809C19.9007 20.5809 20.0085 20.5614 20.0995 20.52L20.0563 20.425C19.9823 20.4586 19.8901 20.4766 19.7779 20.4766V20.5809ZM20.1001 20.5197C20.1925 20.4762 20.2646 20.4164 20.3133 20.3391L20.225 20.2834C20.1887 20.3411 20.1333 20.3888 20.0557 20.4253L20.1001 20.5197ZM20.3126 20.3402C20.3636 20.2637 20.3888 20.1773 20.3888 20.0825H20.2845C20.2845 20.1577 20.2647 20.2238 20.2257 20.2823L20.3126 20.3402ZM20.3888 20.0825C20.3888 19.9726 20.3647 19.8784 20.3115 19.8045L20.2268 19.8655C20.2636 19.9166 20.2845 19.9874 20.2845 20.0825H20.3888ZM20.3128 19.8064C20.2651 19.7334 20.1995 19.6752 20.1175 19.6314L20.0683 19.7236C20.1363 19.7598 20.1882 19.8066 20.2255 19.8636L20.3128 19.8064ZM20.1175 19.6314C20.0388 19.5895 19.948 19.5533 19.8454 19.5225L19.8154 19.6225C19.9128 19.6517 19.997 19.6855 20.0683 19.7236L20.1175 19.6314ZM19.8469 19.523C19.7497 19.4906 19.6474 19.4557 19.5401 19.4182L19.5057 19.5168C19.6134 19.5543 19.7161 19.5894 19.8139 19.622L19.8469 19.523ZM19.5396 19.418C19.3361 19.3494 19.1925 19.2667 19.1032 19.1728L19.0276 19.2447C19.1333 19.3558 19.2947 19.4456 19.5062 19.517L19.5396 19.418ZM19.1036 19.1732C19.0166 19.0795 18.9713 18.9567 18.9713 18.8H18.867C18.867 18.9783 18.9192 19.128 19.0272 19.2443L19.1036 19.1732ZM18.9713 18.8C18.9713 18.6657 19.0019 18.5503 19.0613 18.452L18.972 18.398C18.9014 18.5147 18.867 18.6493 18.867 18.8H18.9713ZM19.0609 18.4528C19.1228 18.3541 19.2102 18.2767 19.3246 18.2206L19.2787 18.1269C19.1481 18.1908 19.0455 18.2809 18.9725 18.3972L19.0609 18.4528ZM19.325 18.2204C19.4413 18.1623 19.5805 18.1322 19.7442 18.1322V18.0278C19.5678 18.0278 19.412 18.0602 19.2783 18.1271L19.325 18.2204ZM19.7442 18.1322C19.9052 18.1322 20.0417 18.1622 20.1554 18.2202L20.2029 18.1273C20.0716 18.0603 19.9181 18.0278 19.7442 18.0278V18.1322ZM20.1558 18.2204C20.273 18.279 20.3631 18.3591 20.4276 18.4605L20.5157 18.4045C20.4402 18.2859 20.3353 18.1935 20.2025 18.1271L20.1558 18.2204ZM20.4279 18.461C20.4918 18.5591 20.5245 18.674 20.5245 18.8075H20.6288C20.6288 18.656 20.5915 18.5209 20.5154 18.404L20.4279 18.461ZM20.5767 18.7553H20.2467V18.8597H20.5767V18.7553ZM20.2988 18.8075C20.2988 18.7256 20.2776 18.6459 20.2364 18.5691L20.1444 18.6184C20.1782 18.6816 20.1945 18.7444 20.1945 18.8075H20.2988ZM20.2364 18.5691C20.1938 18.4895 20.1289 18.4253 20.0441 18.3761L19.9917 18.4664C20.0619 18.5072 20.112 18.558 20.1444 18.6184L20.2364 18.5691ZM20.0458 18.3772C19.9603 18.323 19.8549 18.2978 19.7329 18.2978V18.4022C19.8409 18.4022 19.9255 18.4245 19.99 18.4653L20.0458 18.3772ZM19.7343 18.2978C19.6324 18.2951 19.5392 18.3126 19.4558 18.3515L19.5 18.446C19.5666 18.4149 19.6434 18.3999 19.7315 18.4022L19.7343 18.2978ZM19.4566 18.3511C19.3757 18.3874 19.3105 18.441 19.2622 18.5119L19.3486 18.5706C19.3853 18.5165 19.4351 18.4751 19.4992 18.4464L19.4566 18.3511ZM19.2614 18.5131C19.215 18.5857 19.1932 18.6722 19.1932 18.77H19.2976C19.2976 18.6878 19.3158 18.6218 19.3494 18.5694L19.2614 18.5131ZM19.1932 18.77C19.1932 18.8618 19.2121 18.9416 19.2545 19.0052L19.3413 18.9473C19.3137 18.9059 19.2976 18.8482 19.2976 18.77H19.1932ZM19.2554 19.0066C19.2982 19.0665 19.3571 19.1163 19.4301 19.1569L19.4807 19.0656C19.4187 19.0312 19.3726 18.991 19.3404 18.9459L19.2554 19.0066ZM19.4321 19.1579C19.5049 19.1943 19.5886 19.2278 19.683 19.2584L19.7153 19.1591C19.6247 19.1297 19.5459 19.0982 19.4787 19.0646L19.4321 19.1579ZM19.683 19.2584C19.7754 19.2883 19.8778 19.322 19.9901 19.3595L20.0232 19.2605C19.9105 19.223 19.8079 19.1892 19.7153 19.1591L19.683 19.2584ZM19.9901 19.3595C20.1142 19.4009 20.2227 19.4516 20.316 19.5114L20.3723 19.4236C20.2706 19.3584 20.1541 19.3041 20.0232 19.2605L19.9901 19.3595ZM20.3173 19.5123C20.4102 19.568 20.4812 19.6393 20.5315 19.7261L20.6218 19.6739C20.5621 19.5707 20.4781 19.487 20.371 19.4227L20.3173 19.5123ZM20.532 19.727C20.5832 19.8116 20.6107 19.9227 20.6107 20.0638H20.7151C20.7151 19.9098 20.6851 19.7784 20.6213 19.673L20.532 19.727ZM20.6107 20.0638C20.6107 20.1788 20.5798 20.2883 20.5169 20.3931L20.6064 20.4469C20.6785 20.3267 20.7151 20.1987 20.7151 20.0638H20.6107ZM20.5167 20.3934C20.4573 20.4941 20.3674 20.5778 20.2444 20.644L20.2939 20.736C20.4309 20.6622 20.536 20.5659 20.6066 20.4466L20.5167 20.3934ZM20.2444 20.644C20.1241 20.7088 19.9696 20.7428 19.7779 20.7428V20.8472C19.9812 20.8472 20.1542 20.8112 20.2939 20.736L20.2444 20.644Z" fill="#083F8D" mask="url(#path-12-outside-1_1968_15024)"/>
<path d="M22.5206 9.43957C21.7686 8.65699 20.4061 7.50237 19.0575 7.10351C17.6805 6.7117 15.5582 6.35845 13.0923 7.54809" stroke="#083F8D" stroke-width="0.9" stroke-linecap="round"/>
<path d="M20.5254 9.37615C20.6623 9.37615 21.837 9.54068 22.5783 9.54068L22.4073 7.56641" stroke="#083F8D" stroke-width="0.9" stroke-linecap="round" stroke-linejoin="round"/>
<path d="M9.64529 22.4857C10.4688 23.3779 12.0169 24.6898 13.4946 25.145C15.6676 25.8901 18.6509 25.5264 20.0331 24.6411" stroke="#083F8D" stroke-width="0.9" stroke-linecap="round"/>
<path d="M9.56878 24.368L9.25 22.1328L11.5181 22.3756" stroke="#083F8D" stroke-width="0.9" stroke-linecap="round" stroke-linejoin="round"/>
</svg>
