<svg width="145" height="138" viewBox="0 0 145 138" fill="none" xmlns="http://www.w3.org/2000/svg">
<g clip-path="url(#clip0_77_249)">
<mask id="mask0_77_249" style="mask-type:luminance" maskUnits="userSpaceOnUse" x="0" y="0" width="145" height="138">
<path d="M145 0H0V138H145V0Z" fill="white"/>
</mask>
<g mask="url(#mask0_77_249)">
<path fill-rule="evenodd" clip-rule="evenodd" d="M41.2868 48.9947H52.4752C54.0744 48.9947 54.8681 48.1928 54.8681 46.595V19.4667H90.1317V46.595C90.1317 48.1928 90.9313 48.9947 92.5305 48.9947H103.836C105.318 48.9947 106.229 48.1928 106.229 46.595V12.9466C106.229 9.73916 103.491 6.99414 100.293 6.99414H44.8236C41.5144 6.99414 38.7771 9.73916 38.7771 12.9466V46.595C38.7771 48.1987 39.6876 48.9947 41.2868 48.9947Z" fill="white"/>
</g>
<mask id="mask1_77_249" style="mask-type:luminance" maskUnits="userSpaceOnUse" x="0" y="0" width="145" height="138">
<path d="M145 0H0V138H145V0Z" fill="white"/>
</mask>
<g mask="url(#mask1_77_249)">
<path fill-rule="evenodd" clip-rule="evenodd" d="M75.2957 37.2071V46.4839C75.2957 47.7423 74.607 48.3101 73.358 48.3101H67.8834C66.6286 48.3101 66.0566 47.7365 66.0566 46.4839V25.8817C66.0566 25.4252 66.3952 25.0798 66.7395 25.0798H76.6673C79.743 25.0798 82.1418 27.6024 82.1418 30.6869V31.6058C82.1418 34.6962 79.6263 37.2071 76.6673 37.2071H75.2957Z" fill="white"/>
</g>
<mask id="mask2_77_249" style="mask-type:luminance" maskUnits="userSpaceOnUse" x="0" y="0" width="145" height="138">
<path d="M145 0H0V138H145V0Z" fill="white"/>
</mask>
<g mask="url(#mask2_77_249)">
<path fill-rule="evenodd" clip-rule="evenodd" d="M84.2021 81.7301H79.6322C79.0661 81.7301 78.7217 81.3907 78.7217 80.7V70.6272C78.7217 67.5427 75.3016 67.5427 75.3016 70.6272V80.7C75.3016 81.3907 74.9514 81.7301 74.2744 81.7301H69.827C69.1383 81.7301 68.7998 81.3907 68.7998 80.7V61.8185C68.7998 60.3319 69.4885 59.53 70.971 59.53H74.2802C74.9572 59.53 75.3074 59.8754 75.3074 60.5601V65.4824C79.8715 63.8787 85.2352 64.5752 85.2352 70.516V80.7059C85.2293 81.3907 84.885 81.7301 84.2021 81.7301Z" fill="white"/>
</g>
<mask id="mask3_77_249" style="mask-type:luminance" maskUnits="userSpaceOnUse" x="0" y="0" width="145" height="138">
<path d="M145 0H0V138H145V0Z" fill="white"/>
</mask>
<g mask="url(#mask3_77_249)">
<path fill-rule="evenodd" clip-rule="evenodd" d="M46.423 81.73C46.3121 81.73 46.0786 81.6129 46.0786 81.3905V81.1622C40.3764 82.9942 36.1509 81.6188 36.1509 75.0986V67.086C36.1509 65.5993 36.8337 64.9146 38.2053 64.9146H41.6313C42.3141 64.9146 42.6527 65.2599 42.6527 65.8335V76.1287C42.6527 78.9967 46.0786 79.2191 46.0786 76.0234V67.0918C46.0786 65.6052 46.7673 64.9204 48.2498 64.9204H51.6699C52.3645 64.9204 52.703 65.2657 52.703 65.8393V79.7985C52.703 80.9457 51.7925 81.7417 50.6485 81.7417H46.423V81.73Z" fill="white"/>
</g>
<mask id="mask4_77_249" style="mask-type:luminance" maskUnits="userSpaceOnUse" x="0" y="0" width="145" height="138">
<path d="M145 0H0V138H145V0Z" fill="white"/>
</mask>
<g mask="url(#mask4_77_249)">
<path fill-rule="evenodd" clip-rule="evenodd" d="M62.1753 60.5601V64.9089H65.257C65.9398 64.9089 66.2842 65.2542 66.2842 65.939V68.4616C66.2842 69.1464 65.9398 69.4858 65.257 69.4858H62.1753V74.8647C62.1753 77.2644 63.6578 77.2644 64.9126 76.919C65.1402 76.8078 65.3679 76.919 65.3679 77.2644V79.5528C65.3679 80.4659 65.1402 81.3907 64.2239 81.6131C59.7766 82.7602 55.6677 82.4149 55.6677 75.8889V61.8127C55.6677 60.326 56.3506 59.5242 57.7221 59.5242H61.259C61.831 59.53 62.1753 59.8812 62.1753 60.5601Z" fill="white"/>
</g>
<mask id="mask5_77_249" style="mask-type:luminance" maskUnits="userSpaceOnUse" x="0" y="0" width="145" height="138">
<path d="M145 0H0V138H145V0Z" fill="white"/>
</mask>
<g mask="url(#mask5_77_249)">
<path fill-rule="evenodd" clip-rule="evenodd" d="M135.895 60.5601V64.9089H138.86C139.543 64.9089 139.887 65.2542 139.887 65.939V68.4616C139.887 69.1464 139.543 69.4858 138.86 69.4858H135.895V74.8647C135.895 77.2644 137.261 77.2644 138.638 76.919C138.866 76.8078 139.088 76.919 139.088 77.2644V79.5528C139.088 80.4659 138.749 81.3907 137.839 81.6131C133.391 82.7602 129.277 82.4149 129.277 75.8889V61.8127C129.277 60.326 129.959 59.5242 131.448 59.5242H134.868C135.557 59.53 135.895 59.8812 135.895 60.5601Z" fill="white"/>
</g>
<mask id="mask6_77_249" style="mask-type:luminance" maskUnits="userSpaceOnUse" x="0" y="0" width="145" height="138">
<path d="M145 0H0V138H145V0Z" fill="white"/>
</mask>
<g mask="url(#mask6_77_249)">
<path fill-rule="evenodd" clip-rule="evenodd" d="M6.13414 81.9583H10.815C11.492 81.9583 11.8422 81.613 11.8422 80.9341V69.714H26.5616V80.9341C26.5616 81.613 26.9001 81.9583 27.4721 81.9583H32.2696C32.8416 81.9583 33.2968 81.613 33.2968 80.9341V67.0802C33.2968 65.7106 32.1529 64.5635 30.7813 64.5635H7.62243C6.25671 64.5635 5.10693 65.7106 5.10693 67.0802V80.9341C5.10693 81.6189 5.45128 81.9583 6.13414 81.9583Z" fill="white"/>
</g>
<mask id="mask7_77_249" style="mask-type:luminance" maskUnits="userSpaceOnUse" x="0" y="0" width="145" height="138">
<path d="M145 0H0V138H145V0Z" fill="white"/>
</mask>
<g mask="url(#mask7_77_249)">
<path fill-rule="evenodd" clip-rule="evenodd" d="M20.4042 77.1531V80.9341C20.4042 81.5018 20.0598 81.7301 19.4878 81.7301H17.2058C16.7506 81.7301 16.5229 81.3906 16.5229 80.9341V72.4591C16.5229 72.2308 16.6397 72.1138 16.7506 72.1138H20.8594C22.231 72.1138 23.2523 73.1439 23.2523 74.4023V74.8646C23.2523 76.1172 22.1142 77.1531 20.8594 77.1531H20.4042Z" fill="white"/>
</g>
<mask id="mask8_77_249" style="mask-type:luminance" maskUnits="userSpaceOnUse" x="0" y="0" width="145" height="138">
<path d="M145 0H0V138H145V0Z" fill="white"/>
</mask>
<g mask="url(#mask8_77_249)">
<path fill-rule="evenodd" clip-rule="evenodd" d="M98.9273 76.0118C98.9273 77.6096 97.7834 78.3003 96.9779 78.3003C96.0674 78.3003 95.0402 77.6096 95.0402 76.0118V70.7442C95.0402 69.1405 96.0674 68.3386 96.9779 68.3386C97.7834 68.3386 98.9273 69.1405 98.9273 70.7442V76.0118ZM96.9779 64.7976C90.5871 64.7976 87.3945 67.4314 87.3945 72.6873V74.0628C87.3945 79.2133 90.5871 81.8471 96.9779 81.8471C103.258 81.8471 106.456 79.2133 106.456 74.0628V72.6873C106.456 67.4256 103.258 64.7976 96.9779 64.7976Z" fill="white"/>
</g>
<mask id="mask9_77_249" style="mask-type:luminance" maskUnits="userSpaceOnUse" x="0" y="0" width="145" height="138">
<path d="M145 0H0V138H145V0Z" fill="white"/>
</mask>
<g mask="url(#mask9_77_249)">
<path fill-rule="evenodd" clip-rule="evenodd" d="M119.804 76.0118C119.804 77.6096 118.666 78.3003 117.867 78.3003C116.956 78.3003 115.929 77.6096 115.929 76.0118V70.7442C115.929 69.1405 116.956 68.3386 117.867 68.3386C118.672 68.3386 119.804 69.1405 119.804 70.7442V76.0118ZM117.867 64.7976C111.482 64.7976 108.283 67.4314 108.283 72.6873V74.0628C108.283 79.2133 111.482 81.8471 117.867 81.8471C124.147 81.8471 127.339 79.2133 127.339 74.0628V72.6873C127.339 67.4256 124.147 64.7976 117.867 64.7976Z" fill="white"/>
</g>
<mask id="mask10_77_249" style="mask-type:luminance" maskUnits="userSpaceOnUse" x="0" y="0" width="145" height="138">
<path d="M145 0H0V138H145V0Z" fill="white"/>
</mask>
<g mask="url(#mask10_77_249)">
<path fill-rule="evenodd" clip-rule="evenodd" d="M45.6349 90.2285C45.6349 90.8664 45.4773 91.3464 44.6835 91.3464H39.2965V93.8865H43.2595C43.4112 93.8865 43.5746 94.0446 43.5746 94.2085V96.2745C43.5746 96.4326 43.4112 96.5906 43.2595 96.5906H39.2965V101.355C39.2965 101.677 38.9755 101.829 38.5028 101.829H36.4425H36.2908V89.7544C36.2908 88.9584 36.6059 88.6423 37.2421 88.6423H45.1621C45.4773 88.6423 45.6407 88.8062 45.6407 89.1164V90.2285H45.6349Z" fill="white"/>
</g>
<mask id="mask11_77_249" style="mask-type:luminance" maskUnits="userSpaceOnUse" x="0" y="0" width="145" height="138">
<path d="M145 0H0V138H145V0Z" fill="white"/>
</mask>
<g mask="url(#mask11_77_249)">
<path fill-rule="evenodd" clip-rule="evenodd" d="M53.8759 101.677C53.8759 101.829 53.7184 101.829 53.5549 101.829H51.3371C50.7009 101.829 50.7009 101.677 50.7009 101.197V89.4383C50.7009 88.9642 50.7009 88.6423 51.3371 88.6423H53.5549C53.7125 88.6423 53.8759 88.8004 53.8759 88.9584V101.677Z" fill="white"/>
</g>
<mask id="mask12_77_249" style="mask-type:luminance" maskUnits="userSpaceOnUse" x="0" y="0" width="145" height="138">
<path d="M145 0H0V138H145V0Z" fill="white"/>
</mask>
<g mask="url(#mask12_77_249)">
<path fill-rule="evenodd" clip-rule="evenodd" d="M96.1784 99.283C93.3303 99.283 93.1669 97.5447 93.1669 94.9987C93.1669 92.6165 93.6396 91.1826 96.1784 91.1826C98.869 91.1826 99.3476 92.6165 99.3476 94.9987C99.3476 97.3867 99.1842 99.283 96.1784 99.283ZM96.336 88.4844H96.1784C91.9003 88.6424 89.8401 90.7085 89.8401 94.9987C89.8401 99.4469 91.4218 101.993 96.1784 101.993H96.336C101.087 101.993 102.669 99.4469 102.669 94.9987C102.669 90.7085 100.614 88.4844 96.336 88.4844Z" fill="white"/>
</g>
<mask id="mask13_77_249" style="mask-type:luminance" maskUnits="userSpaceOnUse" x="0" y="0" width="145" height="138">
<path d="M145 0H0V138H145V0Z" fill="white"/>
</mask>
<g mask="url(#mask13_77_249)">
<path fill-rule="evenodd" clip-rule="evenodd" d="M71.146 101.033C71.146 101.677 71.146 101.829 70.5098 101.829H68.4496H68.1286L62.2688 93.4066V100.875C62.2688 101.513 62.2688 101.829 61.4692 101.829H59.5724C59.4148 101.829 59.4148 101.829 59.4148 101.677V89.5964C59.4148 88.9642 59.5724 88.6423 60.0451 88.6423H62.4264C62.584 88.6423 62.584 88.8062 62.7416 88.8062L68.2862 96.7486V89.5964C68.2862 88.9642 68.4437 88.6423 68.9165 88.6423H70.9709C71.1343 88.6423 71.1343 88.8062 71.1343 88.9584V101.033H71.146Z" fill="white"/>
</g>
<mask id="mask14_77_249" style="mask-type:luminance" maskUnits="userSpaceOnUse" x="0" y="0" width="145" height="138">
<path d="M145 0H0V138H145V0Z" fill="white"/>
</mask>
<g mask="url(#mask14_77_249)">
<path fill-rule="evenodd" clip-rule="evenodd" d="M86.0345 101.197C84.4529 102.145 80.8051 102.145 79.381 101.829C76.9998 101.197 75.5757 98.1768 75.5757 95.1567C75.7333 88.9643 79.8538 87.8523 84.7622 88.9643C85.556 89.1224 86.3497 89.4384 86.3497 89.9125V91.1885C86.3497 91.9786 86.0287 92.1425 85.3925 91.9786C83.6474 91.3465 82.5444 91.0304 81.9082 91.0304C79.3752 91.0304 78.7449 92.9385 78.7449 95.1567C78.7449 100.243 82.0658 99.921 85.3925 98.6568C86.0287 98.3407 86.3497 98.6568 86.3497 99.2889V100.565C86.3555 100.875 86.3555 101.033 86.0345 101.197Z" fill="white"/>
</g>
<mask id="mask15_77_249" style="mask-type:luminance" maskUnits="userSpaceOnUse" x="0" y="0" width="145" height="138">
<path d="M145 0H0V138H145V0Z" fill="white"/>
</mask>
<g mask="url(#mask15_77_249)">
<path fill-rule="evenodd" clip-rule="evenodd" d="M129.919 94.6825H126.592V91.3464H129.919C131.191 91.3464 132.458 91.5044 132.458 92.9384C132.458 94.6825 131.349 94.6825 129.919 94.6825ZM130.718 88.6423H124.374C123.744 88.6423 123.271 89.1164 123.271 89.7602V101.829H123.58H125.646C126.277 101.829 126.592 101.513 126.592 100.875V97.5446H130.718C134.203 97.5446 135.784 96.1107 135.784 93.0964C135.784 90.2285 134.203 88.6423 130.718 88.6423Z" fill="white"/>
</g>
<mask id="mask16_77_249" style="mask-type:luminance" maskUnits="userSpaceOnUse" x="0" y="0" width="145" height="138">
<path d="M145 0H0V138H145V0Z" fill="white"/>
</mask>
<g mask="url(#mask16_77_249)">
<path fill-rule="evenodd" clip-rule="evenodd" d="M115.188 93.2486C115.188 94.2085 114.394 94.6825 113.127 94.6825H109.958V91.1883H112.806C113.121 91.1883 115.182 91.1883 115.182 92.4584V93.2486H115.188ZM118.835 101.513L115.351 96.9008C117.569 96.4267 118.678 95.1508 118.678 92.9325C118.678 90.0704 116.938 88.6365 113.448 88.6365H107.746C106.952 88.6365 106.631 89.1106 106.631 89.7485V101.817H109.013C109.643 101.817 109.964 101.507 109.964 100.869V97.0588H111.703L112.497 98.1709L115.03 101.507C115.193 101.817 115.509 101.817 115.666 101.817H118.672C118.993 101.829 118.993 101.829 118.835 101.513Z" fill="white"/>
</g>
<mask id="mask17_77_249" style="mask-type:luminance" maskUnits="userSpaceOnUse" x="0" y="0" width="145" height="138">
<path d="M145 0H0V138H145V0Z" fill="white"/>
</mask>
<g mask="url(#mask17_77_249)">
<path fill-rule="evenodd" clip-rule="evenodd" d="M81.2196 61.5785H80.42V60.7884H81.2196C81.5172 60.7884 81.809 60.8118 81.809 61.1747C81.8032 61.5609 81.5289 61.5785 81.2196 61.5785ZM81.3947 60.1504H79.8772C79.7196 60.1504 79.6262 60.2206 79.6262 60.3787V63.2641C79.6262 63.2817 79.6496 63.2817 79.6671 63.2817H80.169C80.3324 63.2817 80.4141 63.2173 80.4141 63.0593V62.2399H81.3888C82.2059 62.2399 82.6145 61.8946 82.6145 61.1922C82.6203 60.4899 82.2118 60.1504 81.3947 60.1504Z" fill="white"/>
</g>
<mask id="mask18_77_249" style="mask-type:luminance" maskUnits="userSpaceOnUse" x="0" y="0" width="145" height="138">
<path d="M145 0H0V138H145V0Z" fill="white"/>
</mask>
<g mask="url(#mask18_77_249)">
<path fill-rule="evenodd" clip-rule="evenodd" d="M97.3165 61.5785H96.5286V60.7884H97.3165C97.6083 60.7884 97.906 60.8118 97.906 61.1747C97.9001 61.5609 97.6317 61.5785 97.3165 61.5785ZM97.4916 60.1504H95.9741C95.8165 60.1504 95.7231 60.2206 95.7231 60.3787V63.2641C95.7231 63.2817 95.7407 63.2817 95.7698 63.2817H96.2659C96.4235 63.2817 96.5169 63.2173 96.5169 63.0593V62.2399H97.4857C98.297 62.2399 98.7114 61.8946 98.7114 61.1922C98.7172 60.4899 98.3087 60.1504 97.4916 60.1504Z" fill="white"/>
</g>
<mask id="mask19_77_249" style="mask-type:luminance" maskUnits="userSpaceOnUse" x="0" y="0" width="145" height="138">
<path d="M145 0H0V138H145V0Z" fill="white"/>
</mask>
<g mask="url(#mask19_77_249)">
<path fill-rule="evenodd" clip-rule="evenodd" d="M91.7486 61.5785H90.9549V60.7884H91.7486C92.0404 60.7884 92.3381 60.8118 92.3381 61.1747C92.3381 61.5609 92.0696 61.5785 91.7486 61.5785ZM91.9295 60.1504H90.4062C90.2545 60.1504 90.1553 60.2206 90.1553 60.3787V63.2641C90.1553 63.2817 90.1786 63.2817 90.2078 63.2817H90.7039C90.8615 63.2817 90.9549 63.2173 90.9549 63.0593V62.2399H91.9295C92.7466 62.2399 93.1552 61.8946 93.1552 61.1922C93.1552 60.4899 92.7466 60.1504 91.9295 60.1504Z" fill="white"/>
</g>
<mask id="mask20_77_249" style="mask-type:luminance" maskUnits="userSpaceOnUse" x="0" y="0" width="145" height="138">
<path d="M145 0H0V138H145V0Z" fill="white"/>
</mask>
<g mask="url(#mask20_77_249)">
<path fill-rule="evenodd" clip-rule="evenodd" d="M85.7953 62.035L86.2272 60.9464H86.2447L86.6766 62.035H85.7953ZM87.8614 63.188L86.7057 60.2674C86.6532 60.127 86.6357 60.127 86.484 60.127H86.0054C85.8887 60.127 85.8361 60.1738 85.8011 60.2674L84.628 63.229C84.6221 63.2641 84.6105 63.2817 84.6455 63.2817H85.235C85.2875 63.2817 85.3167 63.2641 85.3284 63.2348L85.5326 62.7198C85.5385 62.7022 85.5443 62.6964 85.556 62.6964H86.9567L87.161 63.2348C87.1843 63.2641 87.2077 63.2817 87.2544 63.2817H87.838C87.8847 63.2817 87.8847 63.2641 87.8614 63.188Z" fill="white"/>
</g>
<mask id="mask21_77_249" style="mask-type:luminance" maskUnits="userSpaceOnUse" x="0" y="0" width="145" height="138">
<path d="M145 0H0V138H145V0Z" fill="white"/>
</mask>
<g mask="url(#mask21_77_249)">
<path fill-rule="evenodd" clip-rule="evenodd" d="M101.927 62.035L102.359 60.9464H102.383L102.809 62.035H101.927ZM103.988 63.188L102.832 60.2674C102.774 60.127 102.762 60.127 102.61 60.127H102.126C102.015 60.127 101.956 60.1738 101.921 60.2674L100.742 63.229C100.737 63.2641 100.725 63.2817 100.76 63.2817H101.355C101.396 63.2817 101.431 63.2641 101.443 63.2348L101.647 62.7198C101.653 62.7022 101.659 62.6964 101.676 62.6964H103.071L103.275 63.2348C103.299 63.2641 103.316 63.2817 103.369 63.2817H103.958C104.011 63.2817 104.011 63.2641 103.988 63.188Z" fill="white"/>
</g>
<mask id="mask22_77_249" style="mask-type:luminance" maskUnits="userSpaceOnUse" x="0" y="0" width="145" height="138">
<path d="M145 0H0V138H145V0Z" fill="white"/>
</mask>
<g mask="url(#mask22_77_249)">
<path fill-rule="evenodd" clip-rule="evenodd" d="M117.814 62.035L118.252 60.9464H118.275L118.707 62.035H117.814ZM119.88 63.188L118.724 60.2674C118.672 60.127 118.654 60.127 118.503 60.127H118.012C117.902 60.127 117.843 60.1738 117.808 60.2674L116.641 63.229C116.629 63.2641 116.623 63.2817 116.658 63.2817H117.248C117.289 63.2817 117.324 63.2641 117.33 63.2348L117.54 62.7198C117.54 62.7022 117.546 62.6964 117.563 62.6964H118.964L119.168 63.2348C119.191 63.2641 119.215 63.2817 119.256 63.2817H119.845C119.903 63.2817 119.903 63.2641 119.88 63.188Z" fill="white"/>
</g>
<mask id="mask23_77_249" style="mask-type:luminance" maskUnits="userSpaceOnUse" x="0" y="0" width="145" height="138">
<path d="M145 0H0V138H145V0Z" fill="white"/>
</mask>
<g mask="url(#mask23_77_249)">
<path fill-rule="evenodd" clip-rule="evenodd" d="M108.668 63.1061C108.283 63.3519 107.431 63.3519 107.075 63.2641C106.509 63.1237 106.194 62.3979 106.194 61.678C106.194 60.2206 107.192 59.9221 108.394 60.1914C108.546 60.2323 108.773 60.3084 108.773 60.4255V60.7181C108.773 60.8703 108.686 60.9639 108.534 60.9171C108.114 60.7825 107.81 60.7123 107.682 60.7123C107.075 60.683 106.958 61.1454 106.958 61.6721C106.958 62.8954 107.711 62.8018 108.546 62.5091C108.686 62.4564 108.773 62.4857 108.773 62.6613V62.9656C108.773 63.0359 108.732 63.0768 108.668 63.1061Z" fill="white"/>
</g>
<mask id="mask24_77_249" style="mask-type:luminance" maskUnits="userSpaceOnUse" x="0" y="0" width="145" height="138">
<path d="M145 0H0V138H145V0Z" fill="white"/>
</mask>
<g mask="url(#mask24_77_249)">
<path fill-rule="evenodd" clip-rule="evenodd" d="M114.201 63.1002C114.201 63.2407 114.108 63.2817 113.979 63.2817H113.501C113.478 63.2817 113.454 63.2641 113.454 63.2232V62.0175H112.234V63.1002C112.234 63.2407 112.164 63.2817 112.007 63.2817H111.557C111.511 63.2817 111.487 63.2641 111.487 63.2232V60.1972C111.487 60.1562 111.511 60.1328 111.557 60.1328H112.007C112.164 60.1328 112.234 60.1972 112.234 60.3143V61.4029H113.454V60.1972C113.454 60.1562 113.478 60.1328 113.501 60.1328H113.979C114.108 60.1328 114.201 60.1972 114.201 60.3143V63.1002Z" fill="white"/>
</g>
<mask id="mask25_77_249" style="mask-type:luminance" maskUnits="userSpaceOnUse" x="0" y="0" width="145" height="138">
<path d="M145 0H0V138H145V0Z" fill="white"/>
</mask>
<g mask="url(#mask25_77_249)">
<path fill-rule="evenodd" clip-rule="evenodd" d="M125.185 63.0827C125.185 63.2348 125.162 63.2817 124.999 63.2817H124.526C124.479 63.2817 124.45 63.2934 124.427 63.2466L123.043 61.2858V63.0593C123.043 63.2173 123.026 63.2817 122.868 63.2817H122.413C122.349 63.2817 122.349 63.2817 122.349 63.2231V60.3786C122.349 60.2206 122.413 60.127 122.53 60.127H123.055C123.096 60.127 123.119 60.1445 123.131 60.1738L124.473 62.0584V60.3786C124.473 60.2206 124.52 60.127 124.631 60.127H125.11C125.15 60.127 125.18 60.1504 125.18 60.1913V63.0827H125.185Z" fill="white"/>
</g>
<mask id="mask26_77_249" style="mask-type:luminance" maskUnits="userSpaceOnUse" x="0" y="0" width="145" height="138">
<path d="M145 0H0V138H145V0Z" fill="white"/>
</mask>
<g mask="url(#mask26_77_249)">
<path d="M13.0501 114.729L12.9276 114.495C13.3186 114.407 13.6746 114.36 13.9664 114.36C14.3283 114.36 14.5793 114.389 14.7077 114.425C14.9586 114.512 15.0754 114.682 15.0754 114.951V115.121L15.0929 115.144C15.268 115.379 15.4839 115.379 15.6765 115.127C15.7757 114.986 15.8283 114.875 15.8283 114.764C15.8283 114.36 15.624 114.044 15.2096 113.81C14.9061 113.629 14.5618 113.547 14.2116 113.547C13.5871 113.547 12.6357 113.693 11.3809 113.997C9.82259 114.378 9.09304 114.746 9.09304 115.168C9.09304 115.349 9.16308 115.636 9.64166 115.636C9.69419 115.636 9.79925 115.601 10.1903 115.437C10.8031 115.168 11.3634 114.957 11.8712 114.787C11.8362 114.905 11.8186 115.022 11.842 115.144C12.1046 116.976 12.2505 118.767 12.2505 120.465C12.2505 122.449 11.947 124.181 11.3342 125.627C10.5463 127.529 9.33817 128.489 7.74483 128.489C7.29542 128.489 6.86353 128.319 6.49 127.974C6.09896 127.64 5.87134 127.237 5.81297 126.78C5.76044 126.517 5.65539 126.388 5.49197 126.388C5.38108 126.388 5.29353 126.423 5.22349 126.493C5.13011 126.593 5.07758 126.763 5.08926 127.008C5.10093 127.646 5.44528 128.237 6.07561 128.752C6.64758 129.209 7.24289 129.455 7.82654 129.478H7.91408V129.396V129.472C7.93743 129.472 8.15338 129.461 8.56193 129.426C9.28564 129.385 9.99768 128.981 10.7039 128.249C11.2817 127.658 11.7311 126.997 12.0521 126.259C12.7875 124.597 13.1494 121.951 13.1494 118.399C13.1494 117.562 13.126 116.543 13.0735 115.39C13.0851 115.039 13.0735 114.834 13.0501 114.729Z" fill="white"/>
</g>
<mask id="mask27_77_249" style="mask-type:luminance" maskUnits="userSpaceOnUse" x="0" y="0" width="145" height="138">
<path d="M145 0H0V138H145V0Z" fill="white"/>
</mask>
<g mask="url(#mask27_77_249)">
<path d="M20.4274 123.631C20.2348 123.631 19.9955 123.707 19.9021 124.076L19.797 124.181L19.5578 124.228C19.3301 124.164 19.2134 123.854 19.2134 123.298C19.2134 122.964 19.3535 122.039 19.6453 120.529C19.6862 120.33 19.6628 120.178 19.5753 120.067L19.4352 119.961C19.7095 119.856 19.8612 119.552 19.8612 119.066C19.8612 118.586 19.7328 118.252 19.4819 118.1C19.3476 118.007 19.1842 117.96 18.9916 117.96C18.5189 117.96 17.9294 118.27 17.1823 118.908C16.266 119.686 15.4197 120.699 14.6493 121.893C13.8556 123.157 13.447 124.176 13.447 124.936C13.447 125.323 13.5637 125.604 13.7972 125.785C13.9373 125.89 14.1065 125.943 14.2875 125.943C14.8361 125.943 15.554 125.528 16.482 124.679C17.1123 124.094 17.7193 123.426 18.2621 122.718V122.835C18.2621 123.988 18.5656 124.679 19.1667 124.884C19.3009 124.942 19.4527 124.966 19.5869 124.966C20.1064 124.966 20.4682 124.714 20.6608 124.228C20.6959 124.129 20.7192 124.029 20.7192 123.959C20.7192 123.737 20.6141 123.631 20.4274 123.631ZM14.4742 125.124C14.3633 125.124 14.2524 125.094 14.2524 124.872C14.2524 124.246 14.9061 123.081 16.196 121.401C17.445 119.768 18.373 118.867 18.9274 118.726L18.9333 118.82C18.9449 119.031 18.8866 119.265 18.7815 119.528L18.7582 119.645C18.7582 119.762 18.7873 119.85 18.8691 119.909L18.9099 119.938C18.7523 120.008 18.6589 120.155 18.6356 120.371C18.5947 120.746 18.3963 121.167 18.0753 121.618C18.0053 121.711 17.5909 122.221 16.8263 123.145C15.7466 124.462 14.9528 125.124 14.4742 125.124Z" fill="white"/>
</g>
<mask id="mask28_77_249" style="mask-type:luminance" maskUnits="userSpaceOnUse" x="0" y="0" width="145" height="138">
<path d="M145 0H0V138H145V0Z" fill="white"/>
</mask>
<g mask="url(#mask28_77_249)">
<path d="M28.3767 119.809C28.079 119.634 27.7755 119.54 27.4428 119.54C26.4915 119.54 25.4585 120.02 24.3729 120.98C23.5266 121.717 22.8029 122.578 22.2134 123.526C22.1842 123.344 22.1667 123.151 22.1667 122.94C22.1667 121.559 22.4761 119.909 23.083 118.047C23.1764 117.737 23.5266 116.83 24.1336 115.267L24.1686 115.121C24.1686 114.963 24.0811 114.828 23.906 114.717C23.7659 114.629 23.6375 114.577 23.5208 114.577C23.264 114.577 22.8729 114.957 22.1084 117.907C21.5656 120.026 21.2913 121.618 21.2913 122.648C21.2913 123.28 21.3088 123.696 21.3555 123.93C21.4897 124.509 21.7698 124.802 22.2017 124.802C22.3418 124.802 22.5869 124.696 23.1064 123.818L23.1706 123.696L23.1939 123.666C24.904 121.419 26.3398 120.283 27.4837 120.283C28.0557 120.283 28.1257 120.541 28.1257 120.746C28.1257 121.384 27.507 122.326 26.2872 123.555C25.0558 124.796 24.0811 125.428 23.3574 125.428C23.1064 125.428 23.1064 125.323 23.1064 125.282C23.1064 125.235 23.1356 125.118 23.3282 124.837C23.4216 124.714 23.4566 124.603 23.4566 124.515C23.4566 124.445 23.4332 124.293 23.1823 124.293C23.0305 124.293 22.9255 124.333 22.8379 124.427C22.5344 124.743 22.3885 125.053 22.3885 125.364C22.3885 125.955 22.7795 126.259 23.55 126.259C24.4429 126.259 25.581 125.586 26.9351 124.246C28.2891 122.911 28.9662 121.752 28.9662 120.798C28.9778 120.394 28.7735 120.055 28.3767 119.809Z" fill="white"/>
</g>
<mask id="mask29_77_249" style="mask-type:luminance" maskUnits="userSpaceOnUse" x="0" y="0" width="145" height="138">
<path d="M145 0H0V138H145V0Z" fill="white"/>
</mask>
<g mask="url(#mask29_77_249)">
<path d="M39.1564 124.011C38.7771 123.853 38.3685 123.766 37.9425 123.766C37.4347 123.766 36.0923 124.064 33.962 124.644L33.822 124.638C33.9387 124.439 34.2714 124.058 35.1293 123.379C36.2791 122.513 37.102 121.893 37.6682 121.471C38.0359 121.19 38.4036 120.909 38.7712 120.623C39.3315 120.154 39.5942 119.821 39.5942 119.592C39.5942 119.124 39.1623 118.89 38.3043 118.89H38.2985C36.1274 119.095 34.8433 119.206 34.4815 119.206C34.3589 119.206 34.2072 119.253 34.0087 119.358C33.7403 119.487 33.5943 119.651 33.5943 119.838C33.5943 120.084 33.7111 120.353 34.213 120.353L34.3414 120.33C34.7675 120.207 35.3803 120.078 36.1624 119.932C37.1195 119.768 37.9075 119.68 38.4794 119.68H38.5436C38.2693 119.891 37.6915 120.33 36.8277 120.962C35.7363 121.77 34.7266 122.583 33.8161 123.397C33.18 123.965 32.8765 124.421 32.8765 124.784C32.8765 124.919 32.9815 125.059 33.2033 125.194C33.1858 125.387 33.2208 125.539 33.3025 125.639C33.3901 125.738 33.5126 125.773 33.6644 125.773C33.7227 125.773 33.857 125.75 34.3881 125.58C36.355 124.924 37.6331 124.585 38.2285 124.585C38.707 124.585 39.028 124.661 39.1856 124.831C39.2673 124.913 39.3024 125.012 39.3024 125.135C39.279 125.252 39.4249 125.346 39.4599 125.375C39.5708 125.451 39.6817 125.486 39.781 125.492H39.8335L39.8627 125.451C39.9852 125.194 39.9911 125.123 39.9911 125.071C39.9911 124.608 39.7109 124.251 39.1564 124.011Z" fill="white"/>
</g>
<mask id="mask30_77_249" style="mask-type:luminance" maskUnits="userSpaceOnUse" x="0" y="0" width="145" height="138">
<path d="M145 0H0V138H145V0Z" fill="white"/>
</mask>
<g mask="url(#mask30_77_249)">
<path d="M41.3743 117.052C41.6311 117.052 41.9346 116.953 41.9346 116.461C41.9346 115.97 41.6369 115.87 41.3918 115.87C41.2284 115.87 41.0825 115.94 40.9774 116.081C40.8782 116.215 40.8198 116.35 40.8198 116.491C40.8198 116.613 40.8782 116.73 40.9774 116.871C41.0883 116.994 41.2225 117.052 41.3743 117.052Z" fill="white"/>
</g>
<mask id="mask31_77_249" style="mask-type:luminance" maskUnits="userSpaceOnUse" x="0" y="0" width="145" height="138">
<path d="M145 0H0V138H145V0Z" fill="white"/>
</mask>
<g mask="url(#mask31_77_249)">
<path d="M42.5009 124.784L42.4483 124.802C42.2907 124.878 42.1623 124.983 42.0865 125.094L41.9989 125.106C41.7363 125.106 41.532 124.878 41.3978 124.445L41.1702 123.35C41.1877 123.239 41.1877 122.952 41.1643 122.49C41.2402 121.471 41.3686 120.751 41.5378 120.336C41.7071 119.926 41.7947 119.663 41.7947 119.505C41.7947 119.154 41.6196 118.955 41.3102 118.955C40.9192 118.955 40.6332 119.505 40.4406 120.699C40.3005 121.465 40.2363 122.127 40.2363 122.648C40.2363 123.239 40.3414 123.836 40.5515 124.445C40.855 125.352 41.3102 125.814 41.9055 125.814C42.0573 125.814 42.2265 125.756 42.4075 125.65C42.6351 125.522 42.7577 125.358 42.7577 125.17C42.7577 125.042 42.6876 124.925 42.5417 124.802L42.5009 124.784Z" fill="white"/>
</g>
<mask id="mask32_77_249" style="mask-type:luminance" maskUnits="userSpaceOnUse" x="0" y="0" width="145" height="138">
<path d="M145 0H0V138H145V0Z" fill="white"/>
</mask>
<g mask="url(#mask32_77_249)">
<path d="M49.8314 124.292L49.7906 124.333C49.5571 124.579 49.4462 124.609 49.3937 124.609C49.2653 124.609 49.0435 124.456 48.8743 123.438C48.8568 123.35 48.8159 123.005 48.6992 121.869L48.5358 120.172C48.3665 119.388 47.9988 119.001 47.456 119.001C46.9016 119.001 46.0261 120.014 44.7713 122.104L45.2032 119.944L45.2148 119.926L45.0981 119.493C45.0397 119.382 44.9172 119.247 44.6604 119.247C44.2985 119.247 44.1001 119.517 44.0475 120.049C44.0009 120.588 43.9717 121.003 43.9658 121.296C43.4581 124.556 43.3939 125.012 43.3939 125.071C43.3764 125.229 43.4114 125.352 43.4814 125.422C43.5573 125.522 43.6799 125.563 43.8374 125.563C44.0826 125.563 44.2577 125.399 44.3452 125.077C44.672 124.029 45.2382 122.882 46.0086 121.647C47.0591 119.996 47.351 119.815 47.4093 119.815C47.421 119.815 47.5085 119.879 47.5844 120.471C47.672 121.255 47.742 121.881 47.777 122.343C47.9813 124.31 48.5416 125.311 49.4346 125.311C49.5863 125.311 49.7556 125.247 49.9248 125.124C50.1641 124.96 50.275 124.743 50.2633 124.48L50.2575 124.421L49.8314 124.292Z" fill="white"/>
</g>
<mask id="mask33_77_249" style="mask-type:luminance" maskUnits="userSpaceOnUse" x="0" y="0" width="145" height="138">
<path d="M145 0H0V138H145V0Z" fill="white"/>
</mask>
<g mask="url(#mask33_77_249)">
<path d="M58.4516 114.741C58.4516 114.6 58.3874 114.466 58.259 114.36C58.1306 114.249 58.0022 114.185 57.8855 114.185C57.5528 114.185 57.3019 114.758 57.0626 116.046C56.8466 117.211 56.6774 118.1 56.5606 118.75C56.3038 118.586 56.047 118.498 55.7902 118.498C55.0548 118.498 54.2553 118.961 53.3973 119.879C52.6794 120.646 52.0433 121.594 51.483 122.706C50.9518 123.76 50.6892 124.521 50.6892 125.036C50.6892 125.686 51.0277 126.025 51.6522 126.025H51.8331C52.7261 126.025 54.1035 124.831 56.0179 122.379L56.1988 122.145V122.56C56.1988 124.579 56.6599 125.598 57.5587 125.598C57.7163 125.598 57.8855 125.545 58.0548 125.446C58.2649 125.311 58.3699 125.165 58.3699 125.001C58.3699 124.878 58.3116 124.755 58.1948 124.638L58.1598 124.597L58.1073 124.62C57.9089 124.714 57.7805 124.772 57.7163 124.808L57.6054 124.872C57.3719 124.854 57.0918 124.497 57.0918 122.917C57.0918 120.564 57.4711 118.088 58.2124 115.542C58.4516 114.805 58.4516 114.764 58.4516 114.741ZM56.2863 120.026C56.2863 120.383 56.2163 120.699 56.0996 120.974C55.8895 121.448 55.2299 122.244 54.1385 123.35C52.9304 124.568 52.0666 125.188 51.5822 125.188C51.5472 125.188 51.4713 125.188 51.4713 125.012C51.4713 124.357 52.0374 123.216 53.1522 121.624C54.2553 120.055 55.1249 119.271 55.7435 119.271L55.8603 119.277C55.9653 119.3 56.0646 119.382 56.1521 119.534C56.2455 119.686 56.2863 119.856 56.2863 120.026Z" fill="white"/>
</g>
<mask id="mask34_77_249" style="mask-type:luminance" maskUnits="userSpaceOnUse" x="0" y="0" width="145" height="138">
<path d="M145 0H0V138H145V0Z" fill="white"/>
</mask>
<g mask="url(#mask34_77_249)">
<path d="M65.8697 123.631C65.5954 123.631 65.4087 123.783 65.3386 124.076L65.2277 124.181L64.9884 124.228C64.7667 124.164 64.6558 123.854 64.6558 123.298C64.6558 122.97 64.8017 122.039 65.0818 120.529C65.1285 120.33 65.0993 120.178 65.0118 120.067L64.8659 119.961C65.1519 119.856 65.2919 119.552 65.2919 119.066C65.2919 118.586 65.1694 118.252 64.9184 118.1C64.4048 117.767 63.6461 118.024 62.6247 118.908C61.7084 119.686 60.8504 120.699 60.0858 121.893C59.2921 123.157 58.8835 124.175 58.8835 124.936C58.8835 125.323 59.0003 125.604 59.2337 125.785C59.368 125.89 59.5431 125.943 59.724 125.943C60.2668 125.943 60.9788 125.527 61.9068 124.679C62.543 124.094 63.15 123.426 63.6928 122.718V122.835C63.6928 123.988 63.9904 124.679 64.5916 124.884C64.7375 124.942 64.8834 124.966 65.0176 124.966C65.5371 124.966 65.8989 124.714 66.0857 124.228C66.1265 124.129 66.1441 124.029 66.1441 123.959C66.1557 123.736 66.0507 123.631 65.8697 123.631ZM59.8991 125.124C59.7882 125.124 59.689 125.094 59.689 124.872C59.689 124.246 60.3368 123.081 61.6325 121.401C62.8815 119.768 63.8095 118.867 64.3581 118.726L64.3698 118.82C64.3756 119.031 64.3231 119.265 64.218 119.528L64.1947 119.645C64.1947 119.762 64.2239 119.85 64.2997 119.909L64.3348 119.938C64.183 120.008 64.0955 120.155 64.0663 120.371C64.0254 120.746 63.827 121.167 63.506 121.618C63.4593 121.676 63.2025 122.01 62.2628 123.145C61.1831 124.462 60.3893 125.124 59.8991 125.124Z" fill="white"/>
</g>
<mask id="mask35_77_249" style="mask-type:luminance" maskUnits="userSpaceOnUse" x="0" y="0" width="145" height="138">
<path d="M145 0H0V138H145V0Z" fill="white"/>
</mask>
<g mask="url(#mask35_77_249)">
<path d="M71.928 119.95C71.7937 119.95 71.5311 120.084 70.7315 121.097C69.8677 122.209 69.3016 122.894 69.0448 123.169C68.3736 123.895 67.8308 124.263 67.4223 124.263C67.4223 124.263 67.3756 124.228 67.3756 123.965C67.3756 123.625 67.5215 123.145 67.8191 122.554C68.0643 122.051 68.3094 121.653 68.5604 121.36C68.8755 120.816 69.3074 120.231 69.8502 119.616C70.5739 118.779 71.1634 118.352 71.5661 118.352L71.6245 118.369C71.6595 118.41 71.712 118.51 71.6887 118.814C71.6537 119.236 71.712 119.511 71.8521 119.663C71.9338 119.757 72.0564 119.798 72.1906 119.798C72.5175 119.798 72.6867 119.522 72.6867 118.972C72.6867 118.68 72.5992 118.381 72.4416 118.094C72.2373 117.702 71.9513 117.509 71.5778 117.509C70.7432 117.509 69.716 118.293 68.4203 119.903C67.1596 121.495 66.5118 122.818 66.5118 123.818C66.5118 124.146 66.6052 124.439 66.7861 124.667C66.9845 124.948 67.2705 125.083 67.6382 125.083C68.2977 125.083 69.0215 124.626 69.786 123.725C70.0603 123.391 70.5798 122.66 71.3152 121.548C71.5545 121.173 71.6478 121.05 71.6829 121.015C71.8463 121.05 72.1556 121.477 72.1556 124.234C72.1556 125.317 71.9805 126.429 71.6187 127.523C71.0759 129.209 70.2296 130.069 69.1032 130.069C68.5604 130.069 68.0643 129.8 67.6207 129.285C67.1713 128.758 66.9554 128.167 66.9729 127.518C66.9729 127.178 66.7744 127.125 66.6519 127.125C66.4593 127.125 66.22 127.231 66.22 127.728C66.22 128.507 66.5351 129.25 67.1596 129.946C67.7841 130.643 68.4903 130.994 69.2607 130.994C70.3055 130.994 71.2218 130.315 71.9805 128.969C72.7276 127.646 73.1069 126.007 73.1069 124.117C73.1069 123.362 73.0486 122.578 72.8968 121.77C72.6984 120.558 72.3716 119.95 71.928 119.95Z" fill="white"/>
</g>
<mask id="mask36_77_249" style="mask-type:luminance" maskUnits="userSpaceOnUse" x="0" y="0" width="145" height="138">
<path d="M145 0H0V138H145V0Z" fill="white"/>
</mask>
<g mask="url(#mask36_77_249)">
<path d="M76.1652 124.784L76.1185 124.802C75.9609 124.878 75.8383 124.983 75.7508 125.094L75.6691 125.106C75.4065 125.106 75.208 124.889 75.0621 124.439L74.8403 123.356C74.8462 123.245 74.8462 122.958 74.8345 122.496C74.9045 121.489 75.0388 120.757 75.2022 120.342C75.3714 119.944 75.4531 119.669 75.4531 119.511C75.4531 119.159 75.2839 118.96 74.9746 118.96C74.5835 118.96 74.3034 119.511 74.0991 120.705C73.9707 121.471 73.9065 122.133 73.9065 122.654C73.9065 123.239 74.0116 123.842 74.2158 124.45C74.5193 125.358 74.9746 125.82 75.5757 125.82C75.7275 125.82 75.885 125.767 76.066 125.656C76.3053 125.527 76.422 125.364 76.422 125.176C76.422 125.047 76.3461 124.93 76.2002 124.808L76.1652 124.784Z" fill="white"/>
</g>
<mask id="mask37_77_249" style="mask-type:luminance" maskUnits="userSpaceOnUse" x="0" y="0" width="145" height="138">
<path d="M145 0H0V138H145V0Z" fill="white"/>
</mask>
<g mask="url(#mask37_77_249)">
<path d="M75.0447 117.052C75.3015 117.052 75.605 116.953 75.605 116.461C75.605 115.97 75.3132 115.87 75.0622 115.87C74.8988 115.87 74.7587 115.94 74.642 116.081C74.5544 116.215 74.4902 116.35 74.4902 116.491C74.4902 116.613 74.5486 116.73 74.6478 116.859C74.7587 116.994 74.8929 117.052 75.0447 117.052Z" fill="white"/>
</g>
<mask id="mask38_77_249" style="mask-type:luminance" maskUnits="userSpaceOnUse" x="0" y="0" width="145" height="138">
<path d="M145 0H0V138H145V0Z" fill="white"/>
</mask>
<g mask="url(#mask38_77_249)">
<path d="M87.4295 119.809C87.1318 119.634 86.8225 119.54 86.5015 119.54C85.556 119.54 84.5171 120.02 83.4198 120.98C82.5794 121.717 81.8615 122.572 81.2779 123.526C81.2428 123.344 81.2195 123.151 81.2195 122.94C81.2195 121.559 81.523 119.909 82.1358 118.047C82.2292 117.737 82.5911 116.795 83.1864 115.267L83.2156 115.121C83.2156 114.963 83.128 114.828 82.9646 114.717C82.8245 114.629 82.6961 114.577 82.5852 114.577C82.3284 114.577 81.9432 114.957 81.1728 117.907C80.6359 120.026 80.3557 121.618 80.3557 122.648C80.3557 123.28 80.3791 123.696 80.4199 123.93C80.5483 124.509 80.8343 124.802 81.2662 124.802C81.4004 124.802 81.6397 124.696 82.165 123.818L82.235 123.696L82.2584 123.666C83.9568 121.419 85.4042 120.283 86.5482 120.283C87.1201 120.283 87.1843 120.541 87.1843 120.746C87.1843 121.389 86.5657 122.326 85.3459 123.555C84.1144 124.796 83.128 125.428 82.4218 125.428C82.1708 125.428 82.1708 125.323 82.1708 125.282C82.1708 125.235 82.2 125.118 82.4043 124.837C82.486 124.714 82.5327 124.603 82.5327 124.515C82.5327 124.445 82.5035 124.293 82.2584 124.293C82.1125 124.293 82.0016 124.333 81.914 124.427C81.6106 124.743 81.4646 125.053 81.4646 125.364C81.4646 125.773 81.6631 126.259 82.6202 126.259C83.5307 126.259 84.628 125.604 86.0112 124.246C87.3536 122.911 88.0423 121.752 88.0423 120.798C88.0248 120.394 87.8263 120.055 87.4295 119.809Z" fill="white"/>
</g>
<mask id="mask39_77_249" style="mask-type:luminance" maskUnits="userSpaceOnUse" x="0" y="0" width="145" height="138">
<path d="M145 0H0V138H145V0Z" fill="white"/>
</mask>
<g mask="url(#mask39_77_249)">
<path d="M94.1588 123.631C93.8904 123.631 93.7094 123.783 93.6394 124.076L93.5285 124.181L93.2834 124.228C93.0616 124.164 92.9449 123.854 92.9449 123.298C92.9449 122.964 93.0908 122.039 93.3826 120.529C93.4176 120.33 93.4001 120.178 93.3126 120.067L93.1608 119.961C93.4468 119.856 93.5927 119.552 93.5927 119.066C93.5927 118.586 93.4643 118.252 93.2192 118.1C92.7056 117.767 91.9468 118.024 90.9196 118.908C90.0033 119.686 89.1454 120.699 88.3808 121.893C87.5812 123.157 87.1843 124.175 87.1843 124.936C87.1843 125.323 87.2952 125.604 87.5403 125.785C87.6746 125.89 87.8438 125.943 88.0248 125.943C88.5676 125.943 89.2854 125.527 90.2134 124.679C90.8438 124.094 91.4507 123.426 91.9994 122.718V122.835C91.9994 123.988 92.297 124.679 92.8865 124.884C93.0324 124.942 93.1842 124.966 93.3242 124.966C93.8437 124.966 94.1997 124.714 94.3981 124.228C94.439 124.129 94.4565 124.029 94.4565 123.959C94.4623 123.736 94.3514 123.631 94.1588 123.631ZM88.2057 125.124C88.089 125.124 87.9781 125.094 87.9781 124.872C87.9781 124.246 88.6376 123.081 89.9274 121.401C91.1881 119.768 92.1103 118.867 92.6647 118.726V118.82C92.6706 119.031 92.618 119.265 92.5188 119.528L92.4896 119.645C92.4896 119.762 92.5305 119.85 92.6005 119.909L92.6414 119.938C92.478 120.008 92.3904 120.155 92.3612 120.371C92.3204 120.746 92.1278 121.167 91.8009 121.618C91.7601 121.676 91.5441 121.951 90.5519 123.145C89.4722 124.462 88.6843 125.124 88.2057 125.124Z" fill="white"/>
</g>
<mask id="mask40_77_249" style="mask-type:luminance" maskUnits="userSpaceOnUse" x="0" y="0" width="145" height="138">
<path d="M145 0H0V138H145V0Z" fill="white"/>
</mask>
<g mask="url(#mask40_77_249)">
<path d="M102.447 114.741C102.447 114.6 102.388 114.466 102.26 114.36C102.131 114.249 102.003 114.185 101.88 114.185C101.682 114.185 101.379 114.389 101.063 116.046C100.853 117.211 100.684 118.1 100.573 118.75C100.31 118.586 100.054 118.498 99.7969 118.498C99.0673 118.498 98.2677 118.961 97.4039 119.879C96.6977 120.646 96.0557 121.6 95.4954 122.706C94.9585 123.76 94.7075 124.521 94.7075 125.036C94.7075 125.686 95.0285 126.025 95.6647 126.025H95.8456C96.7328 126.025 98.1043 124.831 100.03 122.379L100.217 122.145V122.56C100.217 124.579 100.672 125.598 101.577 125.598C101.74 125.598 101.904 125.545 102.073 125.446C102.277 125.311 102.382 125.165 102.382 125.001C102.382 124.878 102.33 124.755 102.207 124.638L102.166 124.597L102.108 124.62C101.933 124.708 101.793 124.772 101.723 124.808L101.612 124.872C101.373 124.854 101.104 124.497 101.104 122.917C101.104 120.564 101.472 118.088 102.219 115.542C102.447 114.805 102.447 114.764 102.447 114.741ZM100.293 120.026C100.293 120.383 100.223 120.699 100.095 120.974C99.8903 121.442 99.2307 122.244 98.1393 123.35C96.9312 124.568 96.0732 125.188 95.583 125.188C95.548 125.188 95.4721 125.188 95.4721 125.012C95.4721 124.357 96.0441 123.216 97.1588 121.624C98.2619 120.055 99.1315 119.271 99.756 119.271L99.8669 119.277C99.972 119.3 100.077 119.382 100.153 119.534C100.246 119.686 100.293 119.856 100.293 120.026Z" fill="white"/>
</g>
<mask id="mask41_77_249" style="mask-type:luminance" maskUnits="userSpaceOnUse" x="0" y="0" width="145" height="138">
<path d="M145 0H0V138H145V0Z" fill="white"/>
</mask>
<g mask="url(#mask41_77_249)">
<path d="M109.865 123.631C109.596 123.631 109.415 123.783 109.339 124.076L109.228 124.181L108.989 124.228C108.767 124.164 108.651 123.854 108.651 123.298C108.651 122.964 108.791 122.039 109.083 120.529C109.123 120.33 109.1 120.178 109.013 120.067L108.867 119.961C109.153 119.856 109.293 119.552 109.293 119.066C109.293 118.586 109.17 118.252 108.925 118.1C108.779 118.007 108.616 117.96 108.441 117.96C107.962 117.96 107.367 118.27 106.625 118.908C105.709 119.686 104.857 120.699 104.081 121.893C103.293 123.157 102.89 124.176 102.89 124.936C102.89 125.323 103.001 125.604 103.24 125.785C103.375 125.89 103.544 125.943 103.731 125.943C104.273 125.943 104.985 125.528 105.913 124.679C106.555 124.088 107.157 123.426 107.705 122.718V122.835C107.705 123.988 108.003 124.679 108.598 124.884C108.744 124.942 108.89 124.966 109.024 124.966C109.538 124.966 109.9 124.714 110.092 124.228C110.133 124.129 110.156 124.029 110.156 123.959C110.162 123.737 110.051 123.631 109.865 123.631ZM103.906 125.124C103.801 125.124 103.69 125.094 103.69 124.872C103.69 124.246 104.338 123.081 105.627 121.401C106.882 119.768 107.804 118.867 108.365 118.726V118.82C108.371 119.031 108.324 119.265 108.225 119.528L108.195 119.645C108.195 119.762 108.23 119.85 108.312 119.909L108.347 119.938C108.19 120.008 108.09 120.155 108.067 120.371C108.02 120.746 107.839 121.167 107.507 121.618C107.466 121.676 107.197 122.004 106.264 123.145C105.184 124.462 104.39 125.124 103.906 125.124Z" fill="white"/>
</g>
<mask id="mask42_77_249" style="mask-type:luminance" maskUnits="userSpaceOnUse" x="0" y="0" width="145" height="138">
<path d="M145 0H0V138H145V0Z" fill="white"/>
</mask>
<g mask="url(#mask42_77_249)">
<path d="M113.431 125.369L113.221 125.153H112.941L112.917 125.188C112.859 125.27 112.777 125.311 112.672 125.311C111.978 125.311 111.622 124.246 111.622 122.15C111.622 120.389 111.709 118.767 111.873 117.363C111.908 117.029 111.989 116.555 112.106 115.917L112.211 115.297C112.24 115.127 112.258 115.027 112.264 114.963C112.264 114.477 111.972 114.372 111.715 114.372C111.499 114.372 111.231 114.7 110.968 117.082C110.781 118.65 110.694 120.236 110.694 121.776C110.694 122.08 110.694 122.355 110.711 122.607C110.752 123.719 110.98 124.603 111.365 125.217C111.709 125.762 112.129 126.037 112.614 126.037C112.941 126.037 113.221 125.896 113.437 125.639L113.46 125.615V125.58L113.437 125.387L113.431 125.369Z" fill="white"/>
</g>
<mask id="mask43_77_249" style="mask-type:luminance" maskUnits="userSpaceOnUse" x="0" y="0" width="145" height="138">
<path d="M145 0H0V138H145V0Z" fill="white"/>
</mask>
<g mask="url(#mask43_77_249)">
<path d="M120.4 124.292L120.365 124.333C120.131 124.579 120.014 124.609 119.962 124.609C119.845 124.609 119.617 124.456 119.454 123.438C119.442 123.321 119.378 122.806 119.285 121.869L119.121 120.172C118.946 119.388 118.584 119.001 118.036 119.001C117.487 119.001 116.612 120.014 115.369 122.104L115.789 119.926V119.909C115.748 119.786 115.713 119.651 115.678 119.493C115.62 119.382 115.509 119.247 115.24 119.247C114.884 119.247 114.68 119.517 114.616 120.049C114.581 120.588 114.557 121.003 114.534 121.296C114.277 122.952 113.974 124.942 113.968 125.071C113.956 125.229 113.985 125.352 114.061 125.422C114.137 125.522 114.254 125.563 114.411 125.563C114.662 125.563 114.832 125.399 114.925 125.077C115.24 124.041 115.795 122.888 116.583 121.647C117.656 119.95 117.931 119.815 117.989 119.815C117.989 119.815 118.077 119.879 118.158 120.471C118.252 121.29 118.31 121.905 118.345 122.343C118.549 124.31 119.11 125.311 120.009 125.311C120.16 125.311 120.318 125.247 120.493 125.124C120.726 124.96 120.849 124.743 120.831 124.48V124.421L120.4 124.292Z" fill="white"/>
</g>
<mask id="mask44_77_249" style="mask-type:luminance" maskUnits="userSpaceOnUse" x="0" y="0" width="145" height="138">
<path d="M145 0H0V138H145V0Z" fill="white"/>
</mask>
<g mask="url(#mask44_77_249)">
<path d="M122.401 117.052C122.652 117.052 122.962 116.953 122.962 116.461C122.962 115.97 122.67 115.87 122.419 115.87C122.255 115.87 122.11 115.94 122.005 116.081C121.905 116.215 121.853 116.35 121.853 116.491C121.853 116.613 121.905 116.73 122.016 116.859C122.11 116.994 122.244 117.052 122.401 117.052Z" fill="white"/>
</g>
<mask id="mask45_77_249" style="mask-type:luminance" maskUnits="userSpaceOnUse" x="0" y="0" width="145" height="138">
<path d="M145 0H0V138H145V0Z" fill="white"/>
</mask>
<g mask="url(#mask45_77_249)">
<path d="M123.516 124.784L123.47 124.802C123.312 124.878 123.184 124.983 123.102 125.094L123.02 125.106C122.763 125.106 122.559 124.878 122.419 124.445L122.191 123.35C122.203 123.239 122.203 122.952 122.191 122.49C122.261 121.483 122.39 120.751 122.559 120.336C122.728 119.938 122.804 119.663 122.804 119.505C122.804 119.154 122.641 118.955 122.326 118.955C121.946 118.955 121.654 119.528 121.45 120.699C121.322 121.465 121.252 122.127 121.252 122.648C121.252 123.239 121.363 123.836 121.573 124.445C121.876 125.352 122.337 125.814 122.927 125.814C123.084 125.814 123.254 125.756 123.423 125.65C123.65 125.516 123.779 125.352 123.779 125.17C123.779 125.042 123.715 124.925 123.557 124.802L123.516 124.784Z" fill="white"/>
</g>
<mask id="mask46_77_249" style="mask-type:luminance" maskUnits="userSpaceOnUse" x="0" y="0" width="145" height="138">
<path d="M145 0H0V138H145V0Z" fill="white"/>
</mask>
<g mask="url(#mask46_77_249)">
<path d="M133.981 124.433C133.899 124.433 133.817 124.48 133.677 124.603C133.578 124.696 133.467 124.743 133.345 124.743C133.292 124.743 133.164 124.673 133.041 124.076C132.93 123.286 132.86 122.648 132.831 122.185C132.662 120.184 132.218 119.206 131.512 119.206C130.695 119.206 129.849 120.289 128.926 122.513C128.991 121.202 129.189 119.575 129.516 117.667C129.615 117.158 129.779 116.549 129.989 115.858C130.304 114.875 130.304 114.875 130.304 114.863C130.304 114.524 130.117 114.354 129.779 114.354C129.504 114.354 129.113 114.793 128.565 118.258C128.174 120.576 127.981 122.384 127.981 123.619C127.981 124.925 128.022 125.68 128.127 125.92C128.179 126.054 128.279 126.119 128.407 126.119C128.524 126.119 128.646 126.066 128.763 125.961C128.891 125.855 128.95 125.756 128.961 125.656C129.072 124.392 129.493 123.011 130.21 121.565C130.864 120.254 131.249 119.973 131.459 119.973C131.459 119.973 131.582 119.979 131.693 120.64C131.798 121.442 131.862 122.051 131.897 122.507C132.096 124.503 132.574 125.463 133.356 125.463C133.508 125.463 133.695 125.405 133.917 125.287C134.191 125.135 134.331 124.96 134.331 124.772C134.319 124.562 134.191 124.433 133.981 124.433Z" fill="white"/>
</g>
<mask id="mask47_77_249" style="mask-type:luminance" maskUnits="userSpaceOnUse" x="0" y="0" width="145" height="138">
<path d="M145 0H0V138H145V0Z" fill="white"/>
</mask>
<g mask="url(#mask47_77_249)">
<path d="M138.323 118.264C138.148 118.264 137.868 118.346 137.5 118.533C137.127 118.715 136.911 118.896 136.841 119.089L136.607 119.06C136.193 119.06 135.773 119.598 135.312 120.705C134.88 121.77 134.658 122.782 134.658 123.701C134.658 124.257 134.81 124.726 135.096 125.094C135.393 125.463 135.779 125.656 136.251 125.656L136.403 125.644C137.319 125.568 138.171 124.819 138.942 123.432C139.584 122.256 139.911 121.29 139.893 120.552C139.858 119.031 139.333 118.264 138.323 118.264ZM138.959 120.371C138.959 121.026 138.662 121.904 138.09 122.987C137.436 124.228 136.777 124.854 136.117 124.854C135.714 124.854 135.51 124.421 135.51 123.555C135.51 122.501 135.977 121.36 136.893 120.149C137.168 119.78 137.203 119.651 137.203 119.581L137.208 119.569C137.605 119.195 137.985 119.007 138.317 119.007C138.743 119.001 138.959 119.464 138.959 120.371Z" fill="white"/>
</g>
</g>
<defs>
<clipPath id="clip0_77_249">
<rect width="145" height="138" fill="white"/>
</clipPath>
</defs>
</svg>
