<svg width="175" height="32" viewBox="0 0 175 32" fill="none" xmlns="http://www.w3.org/2000/svg">
<path fill-rule="evenodd" clip-rule="evenodd" d="M13.2803 10.7643C12.4346 10.7643 10.9436 10.7643 10.104 10.7643C10.104 12.7791 10.104 15.7055 10.104 17.7004H12.8706C12.8807 17.1748 12.8929 14.8976 12.8858 14.3271C15.3601 14.7191 15.7576 10.855 13.2803 10.7643Z" fill="white"/>
<path fill-rule="evenodd" clip-rule="evenodd" d="M42.8143 9.03946C42.8174 9.03647 42.8184 9.03547 42.8214 9.03248H45.7722C45.7722 8.06697 45.7722 6.55686 45.7722 5.59135H42.8154V2.4325H38.0165C38.0175 3.08182 38.0256 11.5111 38.0165 12.4197C37.9791 16.0703 39.2425 18.0153 41.7836 18.0133C41.7896 18.0133 41.7937 18.0143 41.7997 18.0153C42.9954 18.0772 44.4248 17.6423 44.9498 17.4647C45.0893 17.4199 45.1571 17.3919 45.1571 17.3919V13.9977C43.8431 14.7507 42.7779 14.264 42.8164 12.4197V9.03946H42.8143Z" fill="white"/>
<path d="M104.926 2.46716H104.278V29.4446H104.926V2.46716Z" fill="white"/>
<path fill-rule="evenodd" clip-rule="evenodd" d="M139.514 25.1121C139.518 23.5971 139.52 14.7848 139.519 13.0712C139.519 9.47247 143.324 9.64901 143.324 12.9695V20.7624H143.303V25.1121C144.881 25.1121 148.973 25.1121 150.497 25.1121C150.114 16.4874 153.483 3.04105 139.52 7.39283L139.133 6.75946H139.135C137.691 6.75846 133.815 6.75946 132.32 6.75946V25.1121C133.89 25.1121 138 25.1121 139.514 25.1121Z" fill="white"/>
<path fill-rule="evenodd" clip-rule="evenodd" d="M151.941 13.5519C151.94 13.5519 151.589 16.3317 152.036 18.2936C152.038 18.3026 152.041 18.3096 152.043 18.3186C152.73 22.796 156.053 25.4312 162.49 25.3365C168.119 25.3365 171.484 23.4833 172.591 19.7918H164.48C163.546 22.432 160.406 21.7856 160.33 18.8093V17.4129H172.997V16.0973H173V15.2275C172.999 3.9566 152.91 3.67432 151.941 13.5519ZM164.708 13.884H160.398V13.0561C160.732 8.91481 165.25 9.96511 164.708 13.884Z" fill="white"/>
<path fill-rule="evenodd" clip-rule="evenodd" d="M130.821 14.1896C130.819 14.1677 130.817 14.1467 130.815 14.1248C130.792 13.8784 130.773 13.7129 130.769 13.6799C130.769 13.678 130.769 13.676 130.768 13.674C130.164 8.92022 126.648 6.53337 120.217 6.53337C113.082 6.42864 109.718 9.63538 109.508 14.9796L109.507 14.9776C109.507 14.9776 109.41 17.0682 109.636 18.2831C109.636 18.2861 109.637 18.2871 109.638 18.2901C110.233 23.0677 113.772 25.4666 120.217 25.4666C127.53 25.5743 130.855 22.2 130.909 16.6174C130.91 16.6064 130.912 16.5974 130.912 16.5865C130.953 15.8115 130.877 14.7951 130.821 14.1896ZM122.379 18.8536C122.264 22.4414 118.145 22.3885 118.03 18.8536V13.1174C118.145 9.58251 122.264 9.52865 122.379 13.1174V18.8536Z" fill="white"/>
<path d="M24.1208 21.0153H30.9569V23.061H26.4889V24.4933H30.529V26.4313H26.4889V29.4405H24.1208V21.0153Z" fill="white"/>
<path d="M35.5389 21.0898H37.9191V29.5151H35.5389V21.0898Z" fill="white"/>
<path d="M42.5357 21.0153H44.745L48.2602 25.4688V21.0153H50.6039V29.4405H48.5292L44.8795 24.8185V29.4405H42.5357V21.0153Z" fill="white"/>
<path d="M55.1587 25.251C54.921 21.0239 61.0744 19.2675 63.2887 22.6029L61.5063 23.9633C60.3258 22.1929 57.4843 22.9998 57.5996 25.2271C57.4995 27.5321 60.4057 28.2294 61.567 26.4549L63.3494 27.7067C61.2423 31.089 55.006 29.6876 55.1587 25.251Z" fill="white"/>
<path d="M67.4437 25.251C67.4427 19.4779 76.6469 19.429 76.6479 25.227C76.6216 30.9682 67.472 31.0171 67.4437 25.251ZM74.2313 25.251C74.2657 22.2766 69.8735 22.1869 69.8735 25.2031C69.8411 28.1904 74.2333 28.2542 74.2313 25.251Z" fill="white"/>
<path d="M80.9124 21.0133C82.5835 21.126 86.658 20.5535 87.7364 21.9279C89.0969 23.1887 88.5426 25.9485 86.7359 26.5021L88.7742 29.4386H86.04L84.3193 26.8871C84.2859 26.8871 83.3138 26.8871 83.2814 26.8871V29.4386H80.9134V21.0133H80.9124ZM84.8433 25.0578C86.5559 25.1506 86.5124 22.9054 84.8312 23.0361H83.2804V25.0578H84.8433Z" fill="white"/>
<path d="M93.1055 21.0141H96.7673C101.646 20.8216 101.359 27.3268 96.6449 27.0326H95.4735V29.4394H93.1055V21.0141ZM96.5974 25.2033C98.4131 25.294 98.3858 22.8444 96.5853 22.977H95.4745V25.2043H96.5974V25.2033Z" fill="white"/>
<path d="M56.006 2.44592H56.9448C58.3822 2.52472 58.0828 4.19142 56.4248 3.93409V4.63927H56.0071V2.44592H56.006ZM56.9104 3.58598C57.5962 3.61291 57.5841 2.75114 56.9104 2.79702H56.4238V3.58598H56.9104Z" fill="white"/>
<path d="M60.2439 2.43079H60.6313L61.6783 4.63909H61.2362L60.9945 4.10946H59.8696L59.6248 4.63909H59.1959L60.2439 2.43079ZM60.8417 3.76834L60.43 2.8916L60.0224 3.76834H60.8417Z" fill="white"/>
<path d="M63.4467 2.4458H64.3854C65.8229 2.5246 65.5235 4.1913 63.8655 3.93396V4.63915H63.4477V2.4458H63.4467ZM64.3511 3.58586C65.0369 3.61279 65.0248 2.75101 64.3511 2.7969H63.8645V3.58586H64.3511Z" fill="white"/>
<path d="M67.0788 2.4458H68.0165C69.454 2.5246 69.1545 4.1913 67.4966 3.93396V4.63915H67.0788V2.4458ZM67.9831 3.58586C68.669 3.61279 68.6568 2.75101 67.9831 2.7969H67.4966V3.58586H67.9831Z" fill="white"/>
<path d="M71.3156 2.43079H71.703L72.75 4.63909H72.308L72.0662 4.10946H70.9413L70.6965 4.63909H70.2676L71.3156 2.43079ZM71.9135 3.76834L71.5017 2.8916L71.0941 3.76834H71.9135Z" fill="white"/>
<path d="M74.2676 3.54884C74.1836 2.50753 75.7667 2.04871 76.4262 2.7499L76.1572 3.03517C75.6746 2.52149 74.6732 2.7888 74.7056 3.54286C74.6803 4.30489 75.6949 4.56722 76.1744 4.03758L76.4434 4.28794C75.7981 5.04299 74.2069 4.61809 74.2676 3.54884Z" fill="white"/>
<path d="M78.2415 2.4458H78.6593V3.35745H79.7943V2.4458H80.212V4.63815H79.7943V3.71453H78.6593V4.63815H78.2415V2.4458Z" fill="white"/>
<path d="M83.0299 2.43079H83.4173L84.4643 4.63909H84.0223L83.7805 4.10946H82.6556L82.4108 4.63909H81.9819L83.0299 2.43079ZM83.6288 3.76834L83.2171 2.8916L82.8094 3.76834H83.6288Z" fill="white"/>
<path d="M86.2327 2.4458H86.6201L87.8947 3.96189V2.4458H88.3064V4.63815H87.9564L86.6444 3.07817V4.63815H86.2327V2.4458Z" fill="white"/>
<path d="M31.3497 5.5813C31.3477 6.58172 31.3456 12.3987 31.3466 13.5308C31.3466 15.9067 28.8349 15.79 28.8349 13.5976V12.3967L28.8461 8.4529H28.8491V7.29189L28.8541 5.5823H28.8491C27.8082 5.5823 25.1144 5.5823 24.1049 5.5823V5.71196L24.0988 7.89035L24.0856 12.5992C24.0856 12.5992 24.0866 12.6321 24.0887 12.687C24.0917 12.7568 24.0968 12.8625 24.1059 12.9802C24.117 13.1219 24.1332 13.2814 24.1585 13.4221C24.1585 13.4231 24.1595 13.4241 24.1595 13.4251C24.556 16.7096 26.0906 18.9538 31.3487 17.2811L31.6036 17.6991H31.6005C32.5545 17.6991 35.1137 17.6991 36.1 17.6991V5.58329C35.0621 5.5813 32.3491 5.5813 31.3497 5.5813Z" fill="white"/>
<path fill-rule="evenodd" clip-rule="evenodd" d="M22.1028 7.35849C22.1028 6.38699 21.2966 5.59204 20.3113 5.59204H13.6937H9.83556H3.79248C2.80721 5.59204 2.001 6.38699 2.001 7.35849C1.99796 9.77127 2.00302 15.2392 2.001 17.6988H6.75029C6.7513 16.3862 6.75029 11.829 6.75029 10.5483V9.08105H9.88715H13.4216H17.3535V10.5483C17.3535 11.829 17.3525 16.3862 17.3535 17.6988H22.1028C22.1008 15.2392 22.1058 9.77027 22.1028 7.35849Z" fill="white"/>
<path fill-rule="evenodd" clip-rule="evenodd" d="M96.5823 9.03946C96.5854 9.03647 96.5864 9.03547 96.5894 9.03248H99.5402C99.5402 8.06697 99.5402 6.55686 99.5402 5.59135H96.5834V2.4325H91.7845C91.7855 3.08182 91.7936 11.5111 91.7845 12.4197C91.7471 16.0703 93.0105 18.0153 95.5516 18.0133C95.5576 18.0133 95.5617 18.0143 95.5677 18.0153C96.7634 18.0772 98.1928 17.6423 98.7178 17.4647C98.8574 17.4199 98.9251 17.3919 98.9251 17.3919V13.9977C97.6111 14.7507 96.5459 14.264 96.5844 12.4197V9.03946H96.5823Z" fill="white"/>
<path fill-rule="evenodd" clip-rule="evenodd" d="M90.2812 10.3737L90.2802 10.3767C89.9352 7.2178 87.6551 5.63089 83.4379 5.63089C78.6886 5.56107 76.5219 7.7584 76.4996 11.395L76.4976 11.3711C76.4976 11.3711 76.442 12.4383 76.6342 13.5425C76.6382 13.5644 76.6412 13.5854 76.6453 13.6073C76.6483 13.6263 76.6514 13.6452 76.6554 13.6642L76.6544 13.6532C77.1875 16.4709 79.4544 17.8863 83.4369 17.8863C88.2064 17.9571 90.356 15.7388 90.3591 12.0763C90.3591 12.0733 90.3601 12.0723 90.3601 12.0693C90.3914 11.3302 90.2812 10.3737 90.2812 10.3737ZM84.7944 14.0113C84.7934 14.0173 84.7914 14.0223 84.7904 14.0282C84.7853 14.0532 84.7803 14.0781 84.7752 14.1011C84.7742 14.106 84.7722 14.11 84.7712 14.115C84.3908 15.7458 82.4861 15.7299 82.0926 14.129C82.0895 14.12 82.0865 14.112 82.0845 14.102C81.866 13.1834 81.9894 10.5751 81.9894 10.5751C82.0369 9.29245 82.3252 8.14142 83.4369 8.16137C84.5557 8.1464 84.8319 9.32836 84.8713 10.63C84.8885 10.9961 84.9694 13.1106 84.7944 14.0113Z" fill="white"/>
<path fill-rule="evenodd" clip-rule="evenodd" d="M74.9739 10.3737L74.9728 10.3767C74.6279 7.2178 72.3478 5.63089 68.1306 5.63089C63.3813 5.56107 61.2146 7.7584 61.1923 11.395L61.1903 11.3711C61.1903 11.3711 61.1346 12.4383 61.3268 13.5425C61.3309 13.5644 61.3339 13.5854 61.338 13.6073C61.341 13.6263 61.344 13.6452 61.3481 13.6642L61.3471 13.6532C61.8802 16.4709 64.1471 17.8863 68.1296 17.8863C72.8991 17.9571 75.0487 15.7388 75.0517 12.0763C75.0517 12.0733 75.0528 12.0723 75.0528 12.0693C75.0841 11.3302 74.9739 10.3737 74.9739 10.3737ZM69.4871 14.0113C69.4861 14.0173 69.4841 14.0223 69.4831 14.0282C69.478 14.0532 69.473 14.0781 69.4679 14.1011C69.4669 14.106 69.4649 14.11 69.4639 14.115C69.0835 15.7458 67.1787 15.7299 66.7852 14.129C66.7822 14.12 66.7792 14.112 66.7771 14.102C66.5587 13.1834 66.6821 10.5751 66.6821 10.5751C66.7296 9.29245 67.0179 8.14142 68.1296 8.16137C69.2484 8.1464 69.5246 9.32836 69.564 10.63C69.5802 10.9961 69.6621 13.1106 69.4871 14.0113Z" fill="white"/>
<path fill-rule="evenodd" clip-rule="evenodd" d="M52.5207 5.95641C52.5187 5.95442 52.5177 5.95442 52.5157 5.95242V2.4325H47.7168C47.7168 3.70821 47.7168 16.2798 47.7168 17.6981C48.8204 17.6981 51.4141 17.6981 52.5157 17.6981V9.61099C52.5157 8.9856 52.6492 8.70632 52.6694 8.66742C53.2642 7.56826 54.8129 7.84255 54.9323 9.49928V17.6981C55.961 17.6981 58.6508 17.6981 59.6816 17.6981C59.5288 11.8402 61.4023 3.14366 52.5207 5.95641Z" fill="white"/>
</svg>
