<svg width="53" height="30" viewBox="0 0 53 30" fill="none" xmlns="http://www.w3.org/2000/svg">
<path fill-rule="evenodd" clip-rule="evenodd" d="M11.2949 19.865H16.6549C17.4329 19.865 17.8348 19.4747 17.8348 18.6942V5.88779H34.6891V18.6942C34.6891 19.4734 35.0807 19.865 35.7303 19.865H41.2252C41.8813 19.865 42.3999 19.4747 42.3999 18.6942V2.87453C42.3999 1.31085 41.0878 0 39.5241 0H12.9934C11.431 0 10.1176 1.31085 10.1176 2.87453V18.6942C10.1176 19.4747 10.5091 19.865 11.2949 19.865Z" fill="#008BD2"/>
<path fill-rule="evenodd" clip-rule="evenodd" d="M27.6318 14.375V18.6939C27.6318 19.3435 27.2376 19.6015 26.5867 19.6015H23.9728C23.4516 19.6015 23.1923 19.2152 23.1923 18.6939V9.01753C23.1923 8.75562 23.3193 8.62207 23.4516 8.62207H28.153C29.7219 8.62207 30.8992 9.80326 30.8992 11.236V11.765C30.8992 13.1977 29.5948 14.3737 28.153 14.3737H27.6318" fill="#008BD2"/>
<path fill-rule="evenodd" clip-rule="evenodd" d="M27.1959 23.431C27.1946 23.4297 27.1946 23.4297 27.1933 23.4284V21.5068H24.6105V22.2679V29.4095V29.8426H25.0422H25.0435H26.7265H26.7278H27.1933V25.1282C27.4111 24.2893 28.4237 24.3658 28.495 25.3668V29.8426H28.9255H28.9268H30.6629H30.6642H31.0519V29.4601V25.9749V25.8504C31.0519 23.0044 28.9864 22.8449 27.1959 23.431Z" fill="#008BD2"/>
<path fill-rule="evenodd" clip-rule="evenodd" d="M9.89813 23.2324H0.964659C0.434356 23.2324 0 23.6668 0 24.1971V25.9384V29.4897V29.8424H2.55686V29.4923C2.55686 29.491 2.55686 29.491 2.55686 29.4897V26.588V25.9384V25.1371H8.26184V29.3121V29.8411H10.8187V29.3121V25.9384V24.1971C10.8187 23.6668 10.4271 23.2324 9.89813 23.2324Z" fill="#008BD2"/>
<path fill-rule="evenodd" clip-rule="evenodd" d="M6.07201 26.0547H5.21108H4.4824H4.36182V26.1843V27.997V29.0628V29.4038V29.842H5.85159V29.4958C5.85678 29.4699 5.85937 29.444 5.85937 29.4141V28.0009H6.07201C6.56731 28.0009 6.97314 27.595 6.97314 27.0997V26.9571C6.97314 26.4644 6.56731 26.0547 6.07201 26.0547Z" fill="#008BD2"/>
<path fill-rule="evenodd" clip-rule="evenodd" d="M43.8403 23.2061C41.3677 23.2061 40.1217 24.233 40.1217 26.279V26.8248C40.1217 28.8708 41.3677 29.8977 43.8403 29.8977C46.3129 29.8977 47.5498 28.8708 47.5498 26.8248V26.279C47.5498 24.2342 46.3129 23.2061 43.8403 23.2061ZM44.5936 27.5613C44.5936 28.1979 44.1683 28.5065 43.8403 28.5065C43.5045 28.5065 43.0779 28.1888 43.0779 27.5613V25.5347C43.0779 24.9072 43.5032 24.5895 43.8403 24.5895C44.167 24.5895 44.5936 24.8994 44.5936 25.5347V27.5613Z" fill="#008BD2"/>
<path fill-rule="evenodd" clip-rule="evenodd" d="M35.6004 23.2539C33.1279 23.2539 31.8818 24.2808 31.8818 26.3268V26.8727C31.8818 28.9187 33.1266 29.9456 35.6004 29.9456C38.073 29.9456 39.31 28.9187 39.31 26.8727V26.3268C39.31 24.2808 38.073 23.2539 35.6004 23.2539ZM36.3538 27.6078C36.3538 28.2445 35.9272 28.553 35.6004 28.553C35.2646 28.553 34.8381 28.2354 34.8381 27.6078V25.5813C34.8381 24.9537 35.2633 24.6361 35.6004 24.6361C35.9272 24.6361 36.3538 24.946 36.3538 25.5813V27.6078Z" fill="#008BD2"/>
<path fill-rule="evenodd" clip-rule="evenodd" d="M15.799 23.2266V24.059C15.799 24.068 15.7977 24.0771 15.7977 24.0862V27.5675C15.7977 28.8654 14.4453 28.8006 14.4453 27.6038V24.7954H14.4531V23.2279H14.4453H12.7286H11.8962V24.0875V24.7954V27.22C11.8962 29.7691 13.5507 30.3357 15.7977 29.6135L15.9351 29.8417H16.7416H18.3558V23.2266H16.6301H15.799Z" fill="#008BD2"/>
<path fill-rule="evenodd" clip-rule="evenodd" d="M21.972 21.5068H19.3892V22.277V26.9603V27.5398C19.3892 29.792 20.6274 30.1771 22.1146 29.9346C22.899 29.8166 23.2335 29.674 23.2335 29.674V27.8212C23.0948 27.9366 22.7966 27.9846 22.7421 27.9924C22.3259 28.0416 21.9733 27.8847 21.9733 27.1509V26.959V25.1126C21.9746 25.1113 21.9758 25.11 21.9771 25.1087H23.5655V24.6498V23.724V23.23H21.9733V21.5068H21.972Z" fill="#008BD2"/>
<path fill-rule="evenodd" clip-rule="evenodd" d="M50.9157 21.5068H48.3329V22.277V26.9603V27.5398C48.3329 29.792 49.5711 30.1771 51.0583 29.9346C51.8427 29.8166 52.1773 29.674 52.1773 29.674V27.8212C52.0385 27.9366 51.7403 27.9846 51.6859 27.9924C51.2697 28.0416 50.917 27.8847 50.917 27.1509V26.959V25.1126C50.9183 25.1113 50.9196 25.11 50.9209 25.1087H52.5092V24.6498V23.724V23.23H50.9157V21.5068Z" fill="#008BD2"/>
<path d="M29.0735 21.5156H29.5766C29.8735 21.5156 30.0615 21.6738 30.0615 21.9137V21.9176C30.0615 22.1847 29.832 22.3247 29.5519 22.3247H29.2991V22.7072H29.0748V21.5156H29.0735ZM29.5584 22.1354C29.7283 22.1354 29.8333 22.0472 29.8333 21.9228V21.9189C29.8333 21.7788 29.7257 21.7062 29.5584 21.7062H29.2978V22.1354H29.5584Z" fill="#008BD2"/>
<path d="M31.3438 21.5068H31.5512L32.1126 22.7075H31.8754L31.7457 22.4196H31.1428L31.0118 22.7075H30.7823L31.3438 21.5068ZM31.664 22.2342L31.4436 21.7571L31.2245 22.2342H31.664Z" fill="#008BD2"/>
<path d="M33.0591 21.5156H33.5622C33.8591 21.5156 34.0471 21.6738 34.0471 21.9137V21.9176C34.0471 22.1847 33.8176 22.3247 33.5375 22.3247H33.2847V22.7072H33.0604V21.5156H33.0591ZM33.544 22.1354C33.7139 22.1354 33.8189 22.0472 33.8189 21.9228V21.9189C33.8189 21.7788 33.7113 21.7062 33.544 21.7062H33.2834V22.1354H33.544Z" fill="#008BD2"/>
<path d="M35.0055 21.5156H35.5086C35.8055 21.5156 35.9935 21.6738 35.9935 21.9137V21.9176C35.9935 22.1847 35.764 22.3247 35.4839 22.3247H35.2311V22.7072H35.0068V21.5156H35.0055ZM35.4904 22.1354C35.6603 22.1354 35.7653 22.0472 35.7653 21.9228V21.9189C35.7653 21.7788 35.6577 21.7062 35.4904 21.7062H35.2298V22.1354H35.4904Z" fill="#008BD2"/>
<path d="M37.2758 21.5068H37.4832L38.0446 22.7075H37.8074L37.6777 22.4196H37.0748L36.9438 22.7075H36.7144L37.2758 21.5068ZM37.596 22.2342L37.3756 21.7571L37.1565 22.2342H37.596Z" fill="#008BD2"/>
<path d="M38.8574 22.1149V22.111C38.8574 21.7726 39.1284 21.4951 39.5148 21.4951C39.7495 21.4951 39.8921 21.5716 40.014 21.6805L39.8701 21.8348C39.7676 21.7467 39.6587 21.687 39.5135 21.687C39.2697 21.687 39.0921 21.8737 39.0921 22.1071V22.111C39.0921 22.3444 39.2684 22.535 39.5135 22.535C39.6704 22.535 39.7702 22.4753 39.8791 22.3807L40.023 22.5168C39.8895 22.6465 39.7443 22.7282 39.5057 22.7282C39.1349 22.7282 38.8574 22.4572 38.8574 22.1149Z" fill="#008BD2"/>
<path d="M40.9879 21.5156H41.2122V22.0109H41.8203V21.5156H42.0446V22.7072H41.8203V22.2054H41.2122V22.7072H40.9879V21.5156Z" fill="#008BD2"/>
<path d="M43.5525 21.5068H43.76L44.3214 22.7075H44.0841L43.9545 22.4196H43.3515L43.2206 22.7075H42.9911L43.5525 21.5068ZM43.8741 22.2342L43.6536 21.7571L43.4345 22.2342H43.8741Z" fill="#008BD2"/>
<path d="M45.2692 21.5156H45.4766L46.1599 22.339V21.5156H46.3803V22.7072H46.1923L45.4896 21.8592V22.7072H45.2692V21.5156Z" fill="#008BD2"/>
</svg>
